<?xml version="1.0" encoding="UTF-8" standalone="no"?>
<!-- Created with Inkscape (http://www.inkscape.org/) -->

<svg
   xmlns:dc="http://purl.org/dc/elements/1.1/"
   xmlns:cc="http://creativecommons.org/ns#"
   xmlns:rdf="http://www.w3.org/1999/02/22-rdf-syntax-ns#"
   xmlns:svg="http://www.w3.org/2000/svg"
   xmlns="http://www.w3.org/2000/svg"
   xmlns:xlink="http://www.w3.org/1999/xlink"
   xmlns:sodipodi="http://sodipodi.sourceforge.net/DTD/sodipodi-0.dtd"
   xmlns:inkscape="http://www.inkscape.org/namespaces/inkscape"
   width="400mm"
   height="300mm"
   viewBox="0 0 1417.3228 1062.9921"
   id="svg2"
   version="1.1"
   inkscape:version="0.91 r13725"
   sodipodi:docname="fablab-logo-1160.svg">
  <defs
     id="defs4" />
  <sodipodi:namedview
     id="base"
     pagecolor="#ffffff"
     bordercolor="#666666"
     borderopacity="1.0"
     inkscape:pageopacity="0.0"
     inkscape:pageshadow="2"
     inkscape:zoom="0.080428801"
     inkscape:cx="-1906.2027"
     inkscape:cy="3131.8045"
     inkscape:document-units="mm"
     inkscape:current-layer="layer1"
     showgrid="false"
     inkscape:window-width="1600"
     inkscape:window-height="850"
     inkscape:window-x="0"
     inkscape:window-y="0"
     inkscape:window-maximized="1"
     inkscape:snap-bbox="false"
     inkscape:bbox-paths="true"
     inkscape:snap-grids="true"
     inkscape:object-nodes="true"
     showguides="true"
     inkscape:guide-bbox="true"
     inkscape:snap-global="true"
     inkscape:snap-center="true">
    <inkscape:grid
       type="xygrid"
       id="grid4140" />
  </sodipodi:namedview>
  <metadata
     id="metadata7">
    <rdf:RDF>
      <cc:Work
         rdf:about="">
        <dc:format>image/svg+xml</dc:format>
        <dc:type
           rdf:resource="http://purl.org/dc/dcmitype/StillImage" />
        <dc:title />
      </cc:Work>
    </rdf:RDF>
  </metadata>
  <g
     inkscape:label="Layer 1"
     inkscape:groupmode="layer"
     id="layer1"
     transform="translate(0,10.629921)"
     style="display:inline">
    <rect
       style="opacity:1;fill:none;fill-opacity:1;fill-rule:nonzero;stroke:#ff2b2b;stroke-width:3.54330707;stroke-linecap:butt;stroke-linejoin:miter;stroke-miterlimit:4;stroke-dasharray:none;stroke-dashoffset:29.05511856;stroke-opacity:1"
       id="rect4136"
       width="4216.5356"
       height="4216.5356"
       x="-2267.7166"
       y="-3305.9058" />
    <rect
       y="1335.8267"
       x="-6484.252"
       height="3791.3384"
       width="3791.3386"
       id="rect4138"
       style="opacity:1;fill:none;fill-opacity:1;fill-rule:nonzero;stroke:#ff2b2b;stroke-width:3.54330707;stroke-linecap:butt;stroke-linejoin:miter;stroke-miterlimit:4;stroke-dasharray:none;stroke-dashoffset:29.05511856;stroke-opacity:1" />
    <rect
       y="-3305.9058"
       x="-6484.252"
       height="4216.5356"
       width="3791.3386"
       id="rect4161"
       style="opacity:1;fill:none;fill-opacity:1;fill-rule:nonzero;stroke:#ff2b2b;stroke-width:3.54330707;stroke-linecap:butt;stroke-linejoin:miter;stroke-miterlimit:4;stroke-dasharray:none;stroke-dashoffset:29.05511856;stroke-opacity:1" />
    <rect
       style="opacity:1;fill:none;fill-opacity:1;fill-rule:nonzero;stroke:#ff2b2b;stroke-width:3.54330707;stroke-linecap:butt;stroke-linejoin:miter;stroke-miterlimit:4;stroke-dasharray:none;stroke-dashoffset:29.05511856;stroke-opacity:1"
       id="rect4163"
       width="3791.3386"
       height="4216.5356"
       x="1335.8267"
       y="-1948.8191"
       transform="matrix(0,1,-1,0,0,0)" />
    <path
       inkscape:connector-curvature="0"
       id="path4234"
       style="fill:#cd1e25;fill-opacity:1;fill-rule:nonzero;stroke:none"
       d="m -1208.7477,-2449.5106 305.13013,180.8299 c -6.0152,50.1388 -6.2064,105.3424 -6.0152,124.3139 2.793,268.8729 366.92903,473.2698 763.88303,469.1556 396.95407,-4.1146 679.67518,-244.5988 677.67763,-481.1856 -2.2615,-268.875 -260.82629,-479.38 -657.6244,-491.2066 -134.33479,-4.0059 -263.83397,22.8082 -322.7915,34.0804 l -222.54914,-142.3466 529.30481,-302.0045 1560.34184,906.9877 178.9408,-98.2232 c -172.1682,-283.0703 -415.972,-528.04 -723.35429,-705.0051 -955.057944,-549.8667 -2168.92081,-239.7071 -2745.75551,689.6559 l 177.4988,112.0668 485.313,-297.1186" />
    <path
       inkscape:connector-curvature="0"
       id="path4236"
       style="fill:#36409e;fill-opacity:1;fill-rule:nonzero;stroke:none"
       d="m 1471.2394,-1463.6941 -331.8026,173.4434 c -12.0306,-2.0086 -85.6751,-70.9503 -102.2514,-80.2014 -234.89053,-130.8585 -580.70767,42.1639 -773.91526,388.95463 -193.20869,346.76648 -176.727643,743.26354 58.15136,874.15806 234.90236,130.846444 584.67639,-26.15237 777.9086,-372.91889 31.1565,-55.9379 72.7795,-185.80985 92.2315,-242.60192 l 282.6836,-163.41068 -1.6703,620.46501 -1556.167644,908.80356 0.75772,204.76739 C 248.35362,838.58763 581.95952,748.27152 888.04126,569.06257 1839.0212,12.187194 2171.3888,-1195.7817 1650.2395,-2157.456 l -179.0001,98.2953 0,595.4666" />
    <text
       xml:space="preserve"
       style="font-style:normal;font-variant:normal;font-weight:normal;font-stretch:normal;font-size:2084.85717773px;line-height:94.99999881%;font-family:'Aero Matics Stencil';-inkscape-font-specification:'Aero Matics Stencil';text-align:start;letter-spacing:-100px;word-spacing:0px;text-anchor:start;fill:#000000;fill-opacity:1;stroke:none;stroke-width:1px;stroke-linecap:butt;stroke-linejoin:miter;stroke-opacity:1"
       x="-6541.3906"
       y="-1562.9634"
       id="text4290"
       sodipodi:linespacing="94.999999%"><tspan
         sodipodi:role="line"
         x="-6541.3906"
         y="-1562.9634"
         id="tspan4294"
         style="font-style:normal;font-variant:normal;font-weight:normal;font-stretch:normal;line-height:94.99999881%;font-family:'Adobe Helvetica';-inkscape-font-specification:'Adobe Helvetica';letter-spacing:-100px"
         dx="0 0.02">FAB</tspan><tspan
         sodipodi:role="line"
         x="-6541.3906"
         y="417.65091"
         id="tspan4298"
         style="font-style:normal;font-variant:normal;font-weight:normal;font-stretch:normal;line-height:94.99999881%;font-family:'Adobe Helvetica';-inkscape-font-specification:'Adobe Helvetica';letter-spacing:-100px"
         dx="0 0"><tspan
   style="line-height:94.99999881%;letter-spacing:-100px;word-spacing:0px"
   id="tspan4300"
   dx="0">L</tspan>AB</tspan></text>
    <rect
       style="opacity:1;fill:none;fill-opacity:1;fill-rule:nonzero;stroke:#000000;stroke-width:3.54330707;stroke-linecap:butt;stroke-linejoin:round;stroke-miterlimit:4;stroke-dasharray:none;stroke-dashoffset:29.05511856;stroke-opacity:1"
       id="rect4332"
       width="1417.3229"
       height="1062.9921"
       x="-3439.4722"
       y="-1346.3024"
       transform="scale(-1,-1)" />
    <path
       style="color:#000000;font-style:normal;font-variant:normal;font-weight:normal;font-stretch:normal;font-size:medium;line-height:normal;font-family:sans-serif;text-indent:0;text-align:start;text-decoration:none;text-decoration-line:none;text-decoration-style:solid;text-decoration-color:#000000;letter-spacing:normal;word-spacing:normal;text-transform:none;direction:ltr;block-progression:tb;writing-mode:lr-tb;baseline-shift:baseline;text-anchor:start;white-space:normal;clip-rule:nonzero;display:inline;overflow:visible;visibility:visible;opacity:1;isolation:auto;mix-blend-mode:normal;color-interpolation:sRGB;color-interpolation-filters:linearRGB;solid-color:#000000;solid-opacity:1;fill:none;fill-opacity:1;fill-rule:nonzero;stroke:#000000;stroke-width:0.03543307;stroke-linecap:butt;stroke-linejoin:round;stroke-miterlimit:4;stroke-dasharray:none;stroke-dashoffset:0;stroke-opacity:1;color-rendering:auto;image-rendering:auto;shape-rendering:auto;text-rendering:auto;enable-background:accumulate"
       d="M -1918.8418 -2150.5938 C -1931.7576 -2150.3783 -1943.5331 -2143.1524 -1949.5742 -2131.7344 C -1955.0312 -2121.4188 -1960.3925 -2111.046 -1965.6777 -2100.627 L -1925.0098 -2097.4707 L -1904.707 -2063.7637 L -1817.4844 -2006.1875 L -1817.4844 -807.19922 L -1784.9766 -829.44141 L -1746.6172 -807.06445 L -1746.6172 -2025.252 C -1746.618 -2037.1557 -1752.5954 -2048.2637 -1762.5293 -2054.8223 L -1898.7344 -2144.7344 C -1904.6944 -2148.6678 -1911.7035 -2150.7087 -1918.8438 -2150.5898 L -1918.8418 -2150.5938 z M -1782.3477 -879.04492 A 10.629921 10.629921 0 0 1 -1774.0801 -875.57812 A 10.629921 10.629921 0 0 1 -1774.7871 -860.5625 A 10.629921 10.629921 0 0 1 -1789.8027 -861.26758 A 10.629921 10.629921 0 0 1 -1789.0957 -876.28711 A 10.629921 10.629921 0 0 1 -1782.3477 -879.04492 z "
       transform="translate(-6.1035156e-5,-10.629921)"
       id="path4402" />
    <path
       style="color:#000000;font-style:normal;font-variant:normal;font-weight:normal;font-stretch:normal;font-size:medium;line-height:normal;font-family:sans-serif;text-indent:0;text-align:start;text-decoration:none;text-decoration-line:none;text-decoration-style:solid;text-decoration-color:#000000;letter-spacing:normal;word-spacing:normal;text-transform:none;direction:ltr;block-progression:tb;writing-mode:lr-tb;baseline-shift:baseline;text-anchor:start;white-space:normal;clip-rule:nonzero;display:inline;overflow:visible;visibility:visible;opacity:1;isolation:auto;mix-blend-mode:normal;color-interpolation:sRGB;color-interpolation-filters:linearRGB;solid-color:#000000;solid-opacity:1;fill:none;fill-opacity:1;fill-rule:nonzero;stroke:#000000;stroke-width:0.03543307;stroke-linecap:butt;stroke-linejoin:round;stroke-miterlimit:4;stroke-dasharray:none;stroke-dashoffset:0;stroke-opacity:1;color-rendering:auto;image-rendering:auto;shape-rendering:auto;text-rendering:auto;enable-background:accumulate"
       d="M -802.15234 -1286.4336 L -840.03906 -1275.6094 L -840.28906 -1226.5215 C -743.58826 -1159.9371 -650.93705 -1062.0947 -578.75195 -939.66406 L -578.74805 -939.6582 L -578.74023 -939.64453 C -483.87528 -778.76125 -443.26779 -607.49298 -452.15625 -465.78906 C -461.05596 -323.90604 -516.62149 -215.88998 -610.54102 -160.51367 C -615.71522 -157.46908 -621.01339 -154.61858 -626.42578 -151.93164 L -644.87695 -102.66797 L -621.84766 -76.441406 C -604.08392 -83.216332 -591.28706 -89.616128 -574.57031 -99.455078 L -574.54688 -99.46875 C -456.31934 -169.17742 -391.36118 -302.99016 -381.42773 -461.35352 C -371.50287 -619.58017 -416.04936 -802.80375 -517.125 -974.63672 C -517.127 -974.64072 -517.12886 -974.64474 -517.13086 -974.64844 L -517.14258 -974.66992 C -517.3354 -974.99768 -517.5099 -975.32856 -517.70312 -975.65625 L -517.66602 -975.52148 C -517.70162 -975.58018 -517.73742 -975.63878 -517.77344 -975.69727 L -517.70312 -975.6582 C -595.44056 -1107.506 -695.20847 -1213.4756 -802.15234 -1286.4336 z M -806.82031 -1258.3184 A 10.629921 10.629921 0 0 1 -796.62109 -1249.5391 A 10.629921 10.629921 0 0 1 -805.24414 -1237.2246 A 10.629921 10.629921 0 0 1 -817.55664 -1245.8457 A 10.629921 10.629921 0 0 1 -808.93555 -1258.1602 A 10.629921 10.629921 0 0 1 -806.82031 -1258.3184 z M -610.38086 -131.08984 A 10.629921 10.629921 0 0 1 -599.63281 -121.71289 A 10.629921 10.629921 0 0 1 -608.93555 -109.9043 A 10.629921 10.629921 0 0 1 -620.74414 -119.20703 A 10.629921 10.629921 0 0 1 -611.44141 -131.01758 A 10.629921 10.629921 0 0 1 -610.38086 -131.08984 z "
       transform="translate(-6.1035156e-5,-10.629921)"
       id="path4364" />
    <path
       style="color:#000000;font-style:normal;font-variant:normal;font-weight:normal;font-stretch:normal;font-size:medium;line-height:normal;font-family:sans-serif;text-indent:0;text-align:start;text-decoration:none;text-decoration-line:none;text-decoration-style:solid;text-decoration-color:#000000;letter-spacing:normal;word-spacing:normal;text-transform:none;direction:ltr;block-progression:tb;writing-mode:lr-tb;baseline-shift:baseline;text-anchor:start;white-space:normal;clip-rule:nonzero;display:inline;overflow:visible;visibility:visible;opacity:1;isolation:auto;mix-blend-mode:normal;color-interpolation:sRGB;color-interpolation-filters:linearRGB;solid-color:#000000;solid-opacity:1;fill:none;fill-opacity:1;fill-rule:nonzero;stroke:#000000;stroke-width:0.03543307;stroke-linecap:butt;stroke-linejoin:round;stroke-miterlimit:4;stroke-dasharray:none;stroke-dashoffset:0;stroke-opacity:1;color-rendering:auto;image-rendering:auto;shape-rendering:auto;text-rendering:auto;enable-background:accumulate"
       d="M -2083.1816 -822.27148 L -2115.8281 -802.38867 L -2152.6406 -808.41797 C -2070.1246 -355.61699 -1838.4694 45.057888 -1510.3965 340.86328 L -1504.3945 298.85547 L -1463.9941 287.69141 C -1780.5196 2.0713776 -2003.8451 -384.81163 -2083.1816 -822.27148 z M -1868.7598 -200.1582 A 10.629921 10.629921 0 0 1 -1864.8945 -199.49219 A 10.629921 10.629921 0 0 1 -1858.6406 -185.82227 A 10.629921 10.629921 0 0 1 -1872.3086 -179.56641 A 10.629921 10.629921 0 0 1 -1878.5664 -193.23438 A 10.629921 10.629921 0 0 1 -1868.7598 -200.1582 z M -1532.9883 261.81055 A 10.629921 10.629921 0 0 1 -1522.4258 272.50977 A 10.629921 10.629921 0 0 1 -1533.123 283.07031 A 10.629921 10.629921 0 0 1 -1543.6836 272.37305 A 10.629921 10.629921 0 0 1 -1532.9883 261.81055 z "
       transform="translate(-6.1035156e-5,-10.629921)"
       id="path4257" />
    <path
       style="fill:none;fill-rule:evenodd;stroke:#000000;stroke-width:0.03543307;stroke-linecap:butt;stroke-linejoin:miter;stroke-miterlimit:4;stroke-dasharray:none;stroke-opacity:1"
       d="m -1965.6778,-2111.2569 c -140.6818,277.3336 -220.1719,591.0022 -220.1719,923.2461 0,125.981 11.4005,249.29026 33.209,368.96291 l 36.8125,6.0293 32.6465,-19.88281 c -20.8876,-115.17334 -31.8028,-233.8484 -31.8028,-355.1074 0,-319.0676 75.957,-619.8416 210.2774,-886.3848 l -20.3028,-33.707 -40.6679,-3.1563 z"
       id="path4348"
       inkscape:connector-curvature="0" />
    <path
       style="fill:none;fill-rule:evenodd;stroke:#000000;stroke-width:0.03543307;stroke-linecap:butt;stroke-linejoin:miter;stroke-miterlimit:4;stroke-dasharray:none;stroke-opacity:1"
       d="M -1463.9941 287.69141 L -1504.3945 298.85547 L -1510.3965 340.86328 C -1179.204 639.48138 -749.7499 831.22187 -276.26953 861.82227 L -257.98633 825.29492 L -274.81445 790.79688 C -731.2339 760.58817 -1144.9566 575.57821 -1463.9941 287.69141 z M -1475.668 314.64062 A 10.629921 10.629921 0 0 1 -1465.1055 325.33984 A 10.629921 10.629921 0 0 1 -1475.8027 335.90039 A 10.629921 10.629921 0 0 1 -1486.3633 325.20508 A 10.629921 10.629921 0 0 1 -1475.668 314.64062 z M -300.14258 811.12891 A 10.629921 10.629921 0 0 1 -299.39062 811.18164 A 10.629921 10.629921 0 0 1 -289.92773 822.86328 A 10.629921 10.629921 0 0 1 -301.60742 832.32422 A 10.629921 10.629921 0 0 1 -311.07227 820.64453 A 10.629921 10.629921 0 0 1 -300.14258 811.12891 z "
       transform="translate(-6.1035156e-5,-10.629921)"
       id="path4253" />
    <path
       style="fill:none;fill-rule:evenodd;stroke:#000000;stroke-width:0.03543307;stroke-linecap:butt;stroke-linejoin:miter;stroke-miterlimit:4;stroke-dasharray:none;stroke-opacity:1"
       d="M -1784.9766 -829.44141 L -1817.4844 -807.19922 L -1817.4844 -234.65625 A 35.436614 35.436614 0 0 0 -1799.6504 -203.90234 L -1243.7285 114.24609 A 35.436614 35.436614 0 0 0 -1190.6953 83.492188 L -1190.6953 67.339844 L -1240.8027 69.189453 L -1261.5625 22.388672 L -1746.6172 -255.20312 L -1746.6172 -807.06445 L -1784.9766 -829.44141 z M -1782.3477 -801.09375 A 10.629921 10.629921 0 0 1 -1774.0801 -797.625 A 10.629921 10.629921 0 0 1 -1774.7871 -782.60938 A 10.629921 10.629921 0 0 1 -1789.8027 -783.31641 A 10.629921 10.629921 0 0 1 -1789.0957 -798.33398 A 10.629921 10.629921 0 0 1 -1782.3477 -801.09375 z M -1799.4844 -235.90234 A 10.629921 10.629921 0 0 1 -1795.6191 -235.23633 A 10.629921 10.629921 0 0 1 -1789.3652 -221.56641 A 10.629921 10.629921 0 0 1 -1803.0332 -215.31055 A 10.629921 10.629921 0 0 1 -1809.291 -228.97852 A 10.629921 10.629921 0 0 1 -1799.4844 -235.90234 z M -1295.6309 29.880859 A 10.629921 10.629921 0 0 1 -1292.7988 30.363281 A 10.629921 10.629921 0 0 1 -1285.8418 43.6875 A 10.629921 10.629921 0 0 1 -1299.166 50.646484 A 10.629921 10.629921 0 0 1 -1306.127 37.322266 A 10.629921 10.629921 0 0 1 -1295.6309 29.880859 z "
       transform="translate(-6.1035156e-5,-10.629921)"
       id="path4370" />
    <path
       style="fill:none;fill-rule:evenodd;stroke:#000000;stroke-width:0.03543307;stroke-linecap:butt;stroke-linejoin:miter;stroke-miterlimit:4;stroke-dasharray:none;stroke-opacity:1"
       d="m -621.8457,-76.443359 -23.0293,-26.226561 18.45117,-49.26367 -0.004,0 c -8.1427,4.04237 -16.55069,7.7042 -25.23829,11.01757 l -18.24609,6.95899 c -13.7324,5.23836 -22.80574,18.40987 -22.80664,33.10742 l 0,576.22852 0,18.9082 c 0,14.53219 8.86931,27.59243 22.37891,32.94727 l 13.92187,5.51757 381.69727,155.46485 -0.0937,102.58008 16.82812,34.49804 -18.2832,36.52735 c 11.6985,0.756 23.42239,1.41806 35.17383,1.97656 20.19269,0.9576 37.09386,-15.14398 37.11523,-35.35938 l 0.15039,-164.00976 c 0.0127,-14.42 -8.71374,-27.40971 -22.06836,-32.84961 L -621.8457,470.26758 Z m -33.83985,8.789062 c 5.4585,-0.09762 10.10347,3.955537 10.7461,9.376953 0.69193,5.829029 -3.47188,11.115553 -9.30078,11.808594 -5.83042,0.693049 -11.11852,-3.47219 -11.81055,-9.302734 -0.693,-5.831101 3.47336,-11.119504 9.30469,-11.810547 0.35209,-0.04176 0.70604,-0.06588 1.06054,-0.07227 z m 413.73438,826.916017 0.002,0 c 0.25119,0.009 0.502,0.0263 0.75195,0.0527 5.83901,0.61249 10.0758,5.84267 9.46289,11.68164 -0.61251,5.83816 -5.84144,10.07465 -11.67968,9.46289 -5.83895,-0.61151 -10.07656,-5.84075 -9.46485,-11.67968 0.58067,-5.54857 5.35199,-9.70418 10.92774,-9.51758 z"
       transform="translate(-6.1035156e-5,-10.629921)"
       id="path4378"
       inkscape:connector-curvature="0"
       sodipodi:nodetypes="ccccscccsccccccccccccccccccccccccc" />
    <path
       style="fill:none;fill-rule:evenodd;stroke:#000000;stroke-width:0.03543307;stroke-linecap:butt;stroke-linejoin:miter;stroke-miterlimit:4;stroke-dasharray:none;stroke-opacity:1"
       d="M -1422.5781 -1175.3535 L -1465.1504 -1167.8145 C -1487.5916 -1113.8754 -1500.9159 -1053.0931 -1504.9883 -988.17969 C -1514.9341 -829.64233 -1470.2158 -646.00537 -1368.7363 -473.87305 L -1368.7363 -473.86523 C -1335.9931 -418.3464 -1299.2993 -367.49392 -1259.8438 -321.69141 L -1261.5625 -323.68555 L -1261.5625 22.388672 L -1240.8027 69.189453 L -1190.6953 67.339844 L -1190.6953 -336.8418 C -1190.696 -345.32989 -1193.7434 -353.53576 -1199.2832 -359.9668 L -1206.1523 -367.94141 C -1242.8579 -410.55167 -1277.1002 -457.99176 -1307.6934 -509.86523 C -1402.5459 -670.75879 -1443.1536 -842.03469 -1434.2637 -983.74023 C -1430.4923 -1043.8565 -1418.3407 -1097.8883 -1398.4473 -1144.416 L -1422.5781 -1175.3535 z M -1439.4492 -1147.3789 A 10.629921 10.629921 0 0 1 -1429.3965 -1139.752 A 10.629921 10.629921 0 0 1 -1436.5898 -1126.5527 A 10.629921 10.629921 0 0 1 -1449.791 -1133.7461 A 10.629921 10.629921 0 0 1 -1442.5957 -1146.9473 A 10.629921 10.629921 0 0 1 -1439.4492 -1147.3789 z M -1228.3086 -9.4160156 A 10.629921 10.629921 0 0 1 -1225.4766 -8.9355469 A 10.629921 10.629921 0 0 1 -1218.5195 4.390625 A 10.629921 10.629921 0 0 1 -1231.8438 11.349609 A 10.629921 10.629921 0 0 1 -1238.8027 -1.9746094 A 10.629921 10.629921 0 0 1 -1228.3086 -9.4160156 z "
       transform="translate(-6.1035156e-5,-10.629921)"
       id="path4386" />
    <path
       style="fill:none;fill-rule:evenodd;stroke:#000000;stroke-width:0.03543307;stroke-linecap:butt;stroke-linejoin:miter;stroke-miterlimit:4;stroke-dasharray:none;stroke-opacity:1"
       d="M -1129.2949 -1398.7129 C -1194.3763 -1398.346 -1256.4516 -1382.7332 -1311.8711 -1350.0605 C -1381.6364 -1308.9257 -1432.8443 -1245.4643 -1465.1504 -1167.8145 L -1422.5781 -1175.3535 L -1398.4473 -1144.416 C -1371.3901 -1207.6987 -1330.0086 -1257.0963 -1275.8848 -1289.0098 C -1181.9633 -1344.3813 -1060.5584 -1340.7099 -932.10742 -1279.8145 C -901.4407 -1265.2762 -870.66532 -1247.4374 -840.28906 -1226.5215 L -840.03906 -1275.6094 L -802.15234 -1286.4336 C -834.82331 -1308.722 -868.16284 -1327.9307 -901.75 -1343.8535 C -977.916 -1379.9618 -1055.536 -1399.1287 -1129.2949 -1398.7129 z M -872.71094 -1299.9727 A 10.629921 10.629921 0 0 1 -862.51172 -1291.1914 A 10.629921 10.629921 0 0 1 -871.13477 -1278.8789 A 10.629921 10.629921 0 0 1 -883.44727 -1287.5 A 10.629921 10.629921 0 0 1 -874.82617 -1299.8145 A 10.629921 10.629921 0 0 1 -872.71094 -1299.9727 z M -1405.4102 -1217.5078 A 10.629921 10.629921 0 0 1 -1395.3574 -1209.8809 A 10.629921 10.629921 0 0 1 -1402.5508 -1196.6816 A 10.629921 10.629921 0 0 1 -1415.752 -1203.875 A 10.629921 10.629921 0 0 1 -1408.5586 -1217.0762 A 10.629921 10.629921 0 0 1 -1405.4102 -1217.5078 z "
       transform="translate(-6.1035156e-5,-10.629921)"
       id="path4394" />
    <use
       x="0"
       y="0"
       xlink:href="#path4402"
       id="use4442"
       transform="matrix(8.7002942e-4,-0.99999962,0.99999962,8.7002942e-4,4198.6684,-1454.0461)"
       width="100%"
       height="100%"
       inkscape:transform-center-x="666.50325"
       inkscape:transform-center-y="108.7859" />
    <g
       id="g4471"
       transform="matrix(-0.99462773,0.10351655,-0.10351655,-0.99462773,5577.455,2030.8389)">
      <path
         inkscape:connector-curvature="0"
         id="use4446"
         d="m 3315.4294,1161.4154 a 10.629921,10.629921 0 0 1 14.79,-2.7 10.629921,10.629921 0 0 1 2.6983,14.7888 10.629921,10.629921 0 0 1 -14.7872,2.6995 10.629921,10.629921 0 0 1 -2.7011,-14.7883 z"
         style="color:#000000;font-style:normal;font-variant:normal;font-weight:normal;font-stretch:normal;font-size:medium;line-height:normal;font-family:sans-serif;text-indent:0;text-align:start;text-decoration:none;text-decoration-line:none;text-decoration-style:solid;text-decoration-color:#000000;letter-spacing:normal;word-spacing:normal;text-transform:none;direction:ltr;block-progression:tb;writing-mode:lr-tb;baseline-shift:baseline;text-anchor:start;white-space:normal;clip-rule:nonzero;display:inline;overflow:visible;visibility:visible;opacity:1;isolation:auto;mix-blend-mode:normal;color-interpolation:sRGB;color-interpolation-filters:linearRGB;solid-color:#000000;solid-opacity:1;fill:none;fill-opacity:1;fill-rule:nonzero;stroke:#000000;stroke-width:0.03543307;stroke-linecap:butt;stroke-linejoin:round;stroke-miterlimit:4;stroke-dasharray:none;stroke-dashoffset:0;stroke-opacity:1;color-rendering:auto;image-rendering:auto;shape-rendering:auto;text-rendering:auto;enable-background:accumulate" />
      <use
         inkscape:transform-center-y="-78.09015"
         inkscape:transform-center-x="635.22699"
         height="100%"
         width="100%"
         transform="matrix(-0.04235065,-0.99910281,0.99910281,-0.04235065,4099.5084,-1073.6202)"
         id="use4448"
         xlink:href="#path4348"
         y="0"
         x="0" />
      <path
         id="use4450"
         d="m 2120.7524,1115.9133 a 10.629921,10.629921 0 0 1 13.4232,6.7711 10.629921,10.629921 0 0 1 -6.7718,13.4213 10.629921,10.629921 0 0 1 -13.4207,-6.7698 10.629921,10.629921 0 0 1 6.7693,-13.4226 z"
         style="fill:none;fill-rule:evenodd;stroke:#000000;stroke-width:0.03543307;stroke-linecap:butt;stroke-linejoin:miter;stroke-miterlimit:4;stroke-dasharray:none;stroke-opacity:1"
         inkscape:connector-curvature="0" />
    </g>
    <use
       x="0"
       y="0"
       xlink:href="#path4370"
       id="use4452"
       transform="matrix(-0.86769316,0.49710018,-0.49710018,-0.86769316,1434.7177,1250.8409)"
       width="100%"
       height="100%"
       inkscape:transform-center-x="-447.10914"
       inkscape:transform-center-y="231.60339" />
    <use
       x="0"
       y="0"
       xlink:href="#path4364"
       id="use4444"
       transform="matrix(0.33142712,-0.94348084,0.94348084,0.33142712,3515.0504,478.05512)"
       width="100%"
       height="100%"
       inkscape:transform-center-x="-93.070423"
       inkscape:transform-center-y="139.93688" />
    <use
       x="0"
       y="0"
       xlink:href="#path4378"
       id="use4454"
       transform="matrix(-0.42463067,0.90536666,-0.90536666,-0.42463067,2700.3071,1533.7352)"
       width="100%"
       height="100%"
       inkscape:transform-center-x="-359.22971"
       inkscape:transform-center-y="-188.88966" />
    <use
       x="0"
       y="0"
       xlink:href="#path4386"
       id="use4456"
       transform="matrix(-0.28138143,0.959596,-0.959596,-0.28138143,1891.1688,1581.4174)"
       width="100%"
       height="100%" />
    <use
       x="0"
       y="0"
       xlink:href="#path4394"
       id="use4458"
       transform="matrix(0.66929864,0.74299349,-0.74299349,0.66929864,2997.3211,2350.7205)"
       width="100%"
       height="100%" />
    <rect
       transform="matrix(-1,0,0,-1,0,-10.629921)"
       y="758.5011"
       x="-3705.0872"
       height="1062.9921"
       width="1417.3229"
       id="rect4484"
       style="opacity:1;fill:none;fill-opacity:1;fill-rule:nonzero;stroke:#000000;stroke-width:3.54330707;stroke-linecap:butt;stroke-linejoin:round;stroke-miterlimit:4;stroke-dasharray:none;stroke-dashoffset:29.05511856;stroke-opacity:1" />
    <g
       transform="translate(928.10555,-213.83441)"
       style="stroke-width:0.03543307;stroke-miterlimit:4;stroke-dasharray:none"
       id="g4349">
      <path
         sodipodi:nodetypes="ccccccccc"
         style="opacity:1;fill:none;fill-opacity:1;fill-rule:nonzero;stroke:#000000;stroke-width:0.03543307;stroke-linecap:butt;stroke-linejoin:miter;stroke-miterlimit:4;stroke-dasharray:none;stroke-dashoffset:29.05511856;stroke-opacity:1"
         d="m -1458.0767,200.26082 0,38.89278 8.8901,8.8949 123.9839,-0.0366 8.8582,-8.85827 0,-38.76515 -8.8608,-9.06949 -124.0158,0 z"
         id="path4351"
         inkscape:connector-curvature="0" />
      <g
         style="stroke-width:0.03543307;stroke-miterlimit:4;stroke-dasharray:none"
         id="g4353">
        <path
           inkscape:connector-curvature="0"
           id="path4355"
           d="m -1433.3363,211.82378 a 10.629921,10.629921 0 0 1 15.0177,0.70764 10.629921,10.629921 0 0 1 -0.709,15.01623 10.629921,10.629921 0 0 1 -15.0149,-0.70755 10.629921,10.629921 0 0 1 0.7062,-15.01632 z"
           style="opacity:1;fill:none;fill-opacity:1;fill-rule:nonzero;stroke:#000000;stroke-width:0.03543307;stroke-linecap:butt;stroke-linejoin:miter;stroke-miterlimit:4;stroke-dasharray:none;stroke-dashoffset:29.05511856;stroke-opacity:1" />
        <path
           inkscape:connector-curvature="0"
           id="path4357"
           d="m -1355.3835,211.82378 a 10.629921,10.629921 0 0 1 15.0177,0.70764 10.629921,10.629921 0 0 1 -0.709,15.01622 10.629921,10.629921 0 0 1 -15.0149,-0.70754 10.629921,10.629921 0 0 1 0.7062,-15.01632 z"
           style="opacity:1;fill:none;fill-opacity:1;fill-rule:nonzero;stroke:#000000;stroke-width:0.03543307;stroke-linecap:butt;stroke-linejoin:miter;stroke-miterlimit:4;stroke-dasharray:none;stroke-dashoffset:29.05511856;stroke-opacity:1" />
      </g>
    </g>
    <g
       id="g4383"
       style="stroke-width:0.03543307;stroke-miterlimit:4;stroke-dasharray:none"
       transform="translate(611.56376,-1603.4377)">
      <path
         inkscape:connector-curvature="0"
         id="path4385"
         d="m -1458.0767,200.26082 0,38.89278 8.8901,8.8949 123.9839,-0.0366 8.8582,-8.85827 0,-38.76515 -8.8608,-9.06949 -124.0158,0 z"
         style="opacity:1;fill:none;fill-opacity:1;fill-rule:nonzero;stroke:#000000;stroke-width:0.03543307;stroke-linecap:butt;stroke-linejoin:miter;stroke-miterlimit:4;stroke-dasharray:none;stroke-dashoffset:29.05511856;stroke-opacity:1"
         sodipodi:nodetypes="ccccccccc" />
      <g
         id="g4387"
         style="stroke-width:0.03543307;stroke-miterlimit:4;stroke-dasharray:none">
        <path
           style="opacity:1;fill:none;fill-opacity:1;fill-rule:nonzero;stroke:#000000;stroke-width:0.03543307;stroke-linecap:butt;stroke-linejoin:miter;stroke-miterlimit:4;stroke-dasharray:none;stroke-dashoffset:29.05511856;stroke-opacity:1"
           d="m -1433.3363,211.82378 a 10.629921,10.629921 0 0 1 15.0177,0.70764 10.629921,10.629921 0 0 1 -0.709,15.01623 10.629921,10.629921 0 0 1 -15.0149,-0.70755 10.629921,10.629921 0 0 1 0.7062,-15.01632 z"
           id="path4389"
           inkscape:connector-curvature="0" />
        <path
           style="opacity:1;fill:none;fill-opacity:1;fill-rule:nonzero;stroke:#000000;stroke-width:0.03543307;stroke-linecap:butt;stroke-linejoin:miter;stroke-miterlimit:4;stroke-dasharray:none;stroke-dashoffset:29.05511856;stroke-opacity:1"
           d="m -1355.3835,211.82378 a 10.629921,10.629921 0 0 1 15.0177,0.70764 10.629921,10.629921 0 0 1 -0.709,15.01622 10.629921,10.629921 0 0 1 -15.0149,-0.70754 10.629921,10.629921 0 0 1 0.7062,-15.01632 z"
           id="path4391"
           inkscape:connector-curvature="0" />
      </g>
    </g>
    <g
       transform="translate(59.629339,-1355.3067)"
       style="stroke-width:0.03543307;stroke-miterlimit:4;stroke-dasharray:none"
       id="g4393">
      <path
         sodipodi:nodetypes="ccccccccc"
         style="opacity:1;fill:none;fill-opacity:1;fill-rule:nonzero;stroke:#000000;stroke-width:0.03543307;stroke-linecap:butt;stroke-linejoin:miter;stroke-miterlimit:4;stroke-dasharray:none;stroke-dashoffset:29.05511856;stroke-opacity:1"
         d="m -1458.0767,200.26082 0,38.89278 8.8901,8.8949 123.9839,-0.0366 8.8582,-8.85827 0,-38.76515 -8.8608,-9.06949 -124.0158,0 z"
         id="path4395"
         inkscape:connector-curvature="0" />
      <g
         style="stroke-width:0.03543307;stroke-miterlimit:4;stroke-dasharray:none"
         id="g4397">
        <path
           inkscape:connector-curvature="0"
           id="path4399"
           d="m -1433.3363,211.82378 a 10.629921,10.629921 0 0 1 15.0177,0.70764 10.629921,10.629921 0 0 1 -0.709,15.01623 10.629921,10.629921 0 0 1 -15.0149,-0.70755 10.629921,10.629921 0 0 1 0.7062,-15.01632 z"
           style="opacity:1;fill:none;fill-opacity:1;fill-rule:nonzero;stroke:#000000;stroke-width:0.03543307;stroke-linecap:butt;stroke-linejoin:miter;stroke-miterlimit:4;stroke-dasharray:none;stroke-dashoffset:29.05511856;stroke-opacity:1" />
        <path
           inkscape:connector-curvature="0"
           id="path4401"
           d="m -1355.3835,211.82378 a 10.629921,10.629921 0 0 1 15.0177,0.70764 10.629921,10.629921 0 0 1 -0.709,15.01622 10.629921,10.629921 0 0 1 -15.0149,-0.70754 10.629921,10.629921 0 0 1 0.7062,-15.01632 z"
           style="opacity:1;fill:none;fill-opacity:1;fill-rule:nonzero;stroke:#000000;stroke-width:0.03543307;stroke-linecap:butt;stroke-linejoin:miter;stroke-miterlimit:4;stroke-dasharray:none;stroke-dashoffset:29.05511856;stroke-opacity:1" />
      </g>
    </g>
    <g
       id="g4403"
       style="stroke-width:0.03543307;stroke-miterlimit:4;stroke-dasharray:none"
       transform="translate(997.52192,492.57928)">
      <path
         inkscape:connector-curvature="0"
         id="path4405"
         d="m -1458.0767,200.26082 0,38.89278 8.8901,8.8949 123.9839,-0.0366 8.8582,-8.85827 0,-38.76515 -8.8608,-9.06949 -124.0158,0 z"
         style="opacity:1;fill:none;fill-opacity:1;fill-rule:nonzero;stroke:#000000;stroke-width:0.03543307;stroke-linecap:butt;stroke-linejoin:miter;stroke-miterlimit:4;stroke-dasharray:none;stroke-dashoffset:29.05511856;stroke-opacity:1"
         sodipodi:nodetypes="ccccccccc" />
      <g
         id="g4407"
         style="stroke-width:0.03543307;stroke-miterlimit:4;stroke-dasharray:none">
        <path
           style="opacity:1;fill:none;fill-opacity:1;fill-rule:nonzero;stroke:#000000;stroke-width:0.03543307;stroke-linecap:butt;stroke-linejoin:miter;stroke-miterlimit:4;stroke-dasharray:none;stroke-dashoffset:29.05511856;stroke-opacity:1"
           d="m -1433.3363,211.82378 a 10.629921,10.629921 0 0 1 15.0177,0.70764 10.629921,10.629921 0 0 1 -0.709,15.01623 10.629921,10.629921 0 0 1 -15.0149,-0.70755 10.629921,10.629921 0 0 1 0.7062,-15.01632 z"
           id="path4409"
           inkscape:connector-curvature="0" />
        <path
           style="opacity:1;fill:none;fill-opacity:1;fill-rule:nonzero;stroke:#000000;stroke-width:0.03543307;stroke-linecap:butt;stroke-linejoin:miter;stroke-miterlimit:4;stroke-dasharray:none;stroke-dashoffset:29.05511856;stroke-opacity:1"
           d="m -1355.3835,211.82378 a 10.629921,10.629921 0 0 1 15.0177,0.70764 10.629921,10.629921 0 0 1 -0.709,15.01622 10.629921,10.629921 0 0 1 -15.0149,-0.70754 10.629921,10.629921 0 0 1 0.7062,-15.01632 z"
           id="path4411"
           inkscape:connector-curvature="0" />
      </g>
    </g>
    <g
       id="g4413"
       style="stroke-width:0.03543307;stroke-miterlimit:4;stroke-dasharray:none"
       transform="translate(9.359415,-21.918551)">
      <path
         inkscape:connector-curvature="0"
         id="path4415"
         d="m -1458.0767,200.26082 0,38.89278 8.8901,8.8949 123.9839,-0.0366 8.8582,-8.85827 0,-38.76515 -8.8608,-9.06949 -124.0158,0 z"
         style="opacity:1;fill:none;fill-opacity:1;fill-rule:nonzero;stroke:#000000;stroke-width:0.03543307;stroke-linecap:butt;stroke-linejoin:miter;stroke-miterlimit:4;stroke-dasharray:none;stroke-dashoffset:29.05511856;stroke-opacity:1"
         sodipodi:nodetypes="ccccccccc" />
      <g
         id="g4417"
         style="stroke-width:0.03543307;stroke-miterlimit:4;stroke-dasharray:none">
        <path
           style="opacity:1;fill:none;fill-opacity:1;fill-rule:nonzero;stroke:#000000;stroke-width:0.03543307;stroke-linecap:butt;stroke-linejoin:miter;stroke-miterlimit:4;stroke-dasharray:none;stroke-dashoffset:29.05511856;stroke-opacity:1"
           d="m -1433.3363,211.82378 a 10.629921,10.629921 0 0 1 15.0177,0.70764 10.629921,10.629921 0 0 1 -0.709,15.01623 10.629921,10.629921 0 0 1 -15.0149,-0.70755 10.629921,10.629921 0 0 1 0.7062,-15.01632 z"
           id="path4419"
           inkscape:connector-curvature="0" />
        <path
           style="opacity:1;fill:none;fill-opacity:1;fill-rule:nonzero;stroke:#000000;stroke-width:0.03543307;stroke-linecap:butt;stroke-linejoin:miter;stroke-miterlimit:4;stroke-dasharray:none;stroke-dashoffset:29.05511856;stroke-opacity:1"
           d="m -1355.3835,211.82378 a 10.629921,10.629921 0 0 1 15.0177,0.70764 10.629921,10.629921 0 0 1 -0.709,15.01622 10.629921,10.629921 0 0 1 -15.0149,-0.70754 10.629921,10.629921 0 0 1 0.7062,-15.01632 z"
           id="path4421"
           inkscape:connector-curvature="0" />
      </g>
    </g>
    <g
       transform="translate(299.27486,-250.58426)"
       style="stroke-width:0.03543307;stroke-miterlimit:4;stroke-dasharray:none"
       id="g4423">
      <path
         sodipodi:nodetypes="ccccccccc"
         style="opacity:1;fill:none;fill-opacity:1;fill-rule:nonzero;stroke:#000000;stroke-width:0.03543307;stroke-linecap:butt;stroke-linejoin:miter;stroke-miterlimit:4;stroke-dasharray:none;stroke-dashoffset:29.05511856;stroke-opacity:1"
         d="m -1458.0767,200.26082 0,38.89278 8.8901,8.8949 123.9839,-0.0366 8.8582,-8.85827 0,-38.76515 -8.8608,-9.06949 -124.0158,0 z"
         id="path4425"
         inkscape:connector-curvature="0" />
      <g
         style="stroke-width:0.03543307;stroke-miterlimit:4;stroke-dasharray:none"
         id="g4427">
        <path
           inkscape:connector-curvature="0"
           id="path4429"
           d="m -1433.3363,211.82378 a 10.629921,10.629921 0 0 1 15.0177,0.70764 10.629921,10.629921 0 0 1 -0.709,15.01623 10.629921,10.629921 0 0 1 -15.0149,-0.70755 10.629921,10.629921 0 0 1 0.7062,-15.01632 z"
           style="opacity:1;fill:none;fill-opacity:1;fill-rule:nonzero;stroke:#000000;stroke-width:0.03543307;stroke-linecap:butt;stroke-linejoin:miter;stroke-miterlimit:4;stroke-dasharray:none;stroke-dashoffset:29.05511856;stroke-opacity:1" />
        <path
           inkscape:connector-curvature="0"
           id="path4431"
           d="m -1355.3835,211.82378 a 10.629921,10.629921 0 0 1 15.0177,0.70764 10.629921,10.629921 0 0 1 -0.709,15.01622 10.629921,10.629921 0 0 1 -15.0149,-0.70754 10.629921,10.629921 0 0 1 0.7062,-15.01632 z"
           style="opacity:1;fill:none;fill-opacity:1;fill-rule:nonzero;stroke:#000000;stroke-width:0.03543307;stroke-linecap:butt;stroke-linejoin:miter;stroke-miterlimit:4;stroke-dasharray:none;stroke-dashoffset:29.05511856;stroke-opacity:1" />
      </g>
    </g>
    <g
       transform="matrix(0,-1,1,0,-1919.4508,-2232.8965)"
       style="stroke-width:0.03543307;stroke-miterlimit:4;stroke-dasharray:none"
       id="g4461">
      <path
         sodipodi:nodetypes="ccccccccc"
         style="opacity:1;fill:none;fill-opacity:1;fill-rule:nonzero;stroke:#000000;stroke-width:0.03543307;stroke-linecap:butt;stroke-linejoin:miter;stroke-miterlimit:4;stroke-dasharray:none;stroke-dashoffset:29.05511856;stroke-opacity:1"
         d="m -1458.0767,200.26082 0,38.89278 8.8901,8.8949 123.9839,-0.0366 8.8582,-8.85827 0,-38.76515 -8.8608,-9.06949 -124.0158,0 z"
         id="path4463"
         inkscape:connector-curvature="0" />
      <g
         style="stroke-width:0.03543307;stroke-miterlimit:4;stroke-dasharray:none"
         id="g4465">
        <path
           inkscape:connector-curvature="0"
           id="path4467"
           d="m -1433.3363,211.82378 a 10.629921,10.629921 0 0 1 15.0177,0.70764 10.629921,10.629921 0 0 1 -0.709,15.01623 10.629921,10.629921 0 0 1 -15.0149,-0.70755 10.629921,10.629921 0 0 1 0.7062,-15.01632 z"
           style="opacity:1;fill:none;fill-opacity:1;fill-rule:nonzero;stroke:#000000;stroke-width:0.03543307;stroke-linecap:butt;stroke-linejoin:miter;stroke-miterlimit:4;stroke-dasharray:none;stroke-dashoffset:29.05511856;stroke-opacity:1" />
        <path
           inkscape:connector-curvature="0"
           id="path4469"
           d="m -1355.3835,211.82378 a 10.629921,10.629921 0 0 1 15.0177,0.70764 10.629921,10.629921 0 0 1 -0.709,15.01622 10.629921,10.629921 0 0 1 -15.0149,-0.70754 10.629921,10.629921 0 0 1 0.7062,-15.01632 z"
           style="opacity:1;fill:none;fill-opacity:1;fill-rule:nonzero;stroke:#000000;stroke-width:0.03543307;stroke-linecap:butt;stroke-linejoin:miter;stroke-miterlimit:4;stroke-dasharray:none;stroke-dashoffset:29.05511856;stroke-opacity:1" />
      </g>
    </g>
    <g
       transform="matrix(0,-1,1,0,-2103.886,-3353.4732)"
       style="stroke-width:0.03543307;stroke-miterlimit:4;stroke-dasharray:none"
       id="g4489">
      <path
         sodipodi:nodetypes="ccccccccc"
         style="opacity:1;fill:none;fill-opacity:1;fill-rule:nonzero;stroke:#000000;stroke-width:0.03543307;stroke-linecap:butt;stroke-linejoin:miter;stroke-miterlimit:4;stroke-dasharray:none;stroke-dashoffset:29.05511856;stroke-opacity:1"
         d="m -1458.0767,200.26082 0,38.89278 8.8901,8.8949 123.9839,-0.0366 8.8582,-8.85827 0,-38.76515 -8.8608,-9.06949 -124.0158,0 z"
         id="path4491"
         inkscape:connector-curvature="0" />
      <g
         style="stroke-width:0.03543307;stroke-miterlimit:4;stroke-dasharray:none"
         id="g4493">
        <path
           inkscape:connector-curvature="0"
           id="path4495"
           d="m -1433.3363,211.82378 a 10.629921,10.629921 0 0 1 15.0177,0.70764 10.629921,10.629921 0 0 1 -0.709,15.01623 10.629921,10.629921 0 0 1 -15.0149,-0.70755 10.629921,10.629921 0 0 1 0.7062,-15.01632 z"
           style="opacity:1;fill:none;fill-opacity:1;fill-rule:nonzero;stroke:#000000;stroke-width:0.03543307;stroke-linecap:butt;stroke-linejoin:miter;stroke-miterlimit:4;stroke-dasharray:none;stroke-dashoffset:29.05511856;stroke-opacity:1" />
        <path
           inkscape:connector-curvature="0"
           id="path4497"
           d="m -1355.3835,211.82378 a 10.629921,10.629921 0 0 1 15.0177,0.70764 10.629921,10.629921 0 0 1 -0.709,15.01622 10.629921,10.629921 0 0 1 -15.0149,-0.70754 10.629921,10.629921 0 0 1 0.7062,-15.01632 z"
           style="opacity:1;fill:none;fill-opacity:1;fill-rule:nonzero;stroke:#000000;stroke-width:0.03543307;stroke-linecap:butt;stroke-linejoin:miter;stroke-miterlimit:4;stroke-dasharray:none;stroke-dashoffset:29.05511856;stroke-opacity:1" />
      </g>
    </g>
    <g
       id="g4499"
       style="stroke-width:0.03543307;stroke-miterlimit:4;stroke-dasharray:none"
       transform="matrix(0,-1,1,0,-2249.7623,-2220.6458)">
      <path
         inkscape:connector-curvature="0"
         id="path4501"
         d="m -1458.0767,200.26082 0,38.89278 8.8901,8.8949 123.9839,-0.0366 8.8582,-8.85827 0,-38.76515 -8.8608,-9.06949 -124.0158,0 z"
         style="opacity:1;fill:none;fill-opacity:1;fill-rule:nonzero;stroke:#000000;stroke-width:0.03543307;stroke-linecap:butt;stroke-linejoin:miter;stroke-miterlimit:4;stroke-dasharray:none;stroke-dashoffset:29.05511856;stroke-opacity:1"
         sodipodi:nodetypes="ccccccccc" />
      <g
         id="g4503"
         style="stroke-width:0.03543307;stroke-miterlimit:4;stroke-dasharray:none">
        <path
           style="opacity:1;fill:none;fill-opacity:1;fill-rule:nonzero;stroke:#000000;stroke-width:0.03543307;stroke-linecap:butt;stroke-linejoin:miter;stroke-miterlimit:4;stroke-dasharray:none;stroke-dashoffset:29.05511856;stroke-opacity:1"
           d="m -1433.3363,211.82378 a 10.629921,10.629921 0 0 1 15.0177,0.70764 10.629921,10.629921 0 0 1 -0.709,15.01623 10.629921,10.629921 0 0 1 -15.0149,-0.70755 10.629921,10.629921 0 0 1 0.7062,-15.01632 z"
           id="path4505"
           inkscape:connector-curvature="0" />
        <path
           style="opacity:1;fill:none;fill-opacity:1;fill-rule:nonzero;stroke:#000000;stroke-width:0.03543307;stroke-linecap:butt;stroke-linejoin:miter;stroke-miterlimit:4;stroke-dasharray:none;stroke-dashoffset:29.05511856;stroke-opacity:1"
           d="m -1355.3835,211.82378 a 10.629921,10.629921 0 0 1 15.0177,0.70764 10.629921,10.629921 0 0 1 -0.709,15.01622 10.629921,10.629921 0 0 1 -15.0149,-0.70754 10.629921,10.629921 0 0 1 0.7062,-15.01632 z"
           id="path4507"
           inkscape:connector-curvature="0" />
      </g>
    </g>
    <path
       inkscape:connector-curvature="0"
       id="path4525"
       d="m -2114.0506,-766.26174 a 10.629921,10.629921 0 0 1 -2.3908,-14.84306 10.629921,10.629921 0 0 1 14.8419,-2.3891 10.629921,10.629921 0 0 1 2.3903,14.8403 10.629921,10.629921 0 0 1 -14.8414,2.39186 z"
       style="opacity:1;fill:none;fill-opacity:1;fill-rule:nonzero;stroke:#000000;stroke-width:0.03543307;stroke-linecap:butt;stroke-linejoin:miter;stroke-miterlimit:4;stroke-dasharray:none;stroke-dashoffset:29.05511856;stroke-opacity:1" />
    <path
       inkscape:connector-curvature="0"
       id="path4527"
       d="m -2130.0552,-842.5539 a 10.629921,10.629921 0 0 1 -2.3907,-14.84306 10.629921,10.629921 0 0 1 14.8419,-2.3891 10.629921,10.629921 0 0 1 2.3903,14.8403 10.629921,10.629921 0 0 1 -14.8415,2.39186 z"
       style="opacity:1;fill:none;fill-opacity:1;fill-rule:nonzero;stroke:#000000;stroke-width:0.03543307;stroke-linecap:butt;stroke-linejoin:miter;stroke-miterlimit:4;stroke-dasharray:none;stroke-dashoffset:29.05511856;stroke-opacity:1" />
    <g
       id="g4545"
       style="stroke-width:0.03543307;stroke-miterlimit:4;stroke-dasharray:none"
       transform="matrix(0.88868222,-0.45852363,0.45852363,0.88868222,-533.5905,-1151.0405)">
      <path
         inkscape:connector-curvature="0"
         id="path4547"
         d="m -1458.0767,200.26082 0,38.89278 8.8901,8.8949 123.9839,-0.0366 8.8582,-8.85827 0,-38.76515 -8.8608,-9.06949 -124.0158,0 z"
         style="opacity:1;fill:none;fill-opacity:1;fill-rule:nonzero;stroke:#000000;stroke-width:0.03543307;stroke-linecap:butt;stroke-linejoin:miter;stroke-miterlimit:4;stroke-dasharray:none;stroke-dashoffset:29.05511856;stroke-opacity:1"
         sodipodi:nodetypes="ccccccccc" />
      <g
         id="g4549"
         style="stroke-width:0.03543307;stroke-miterlimit:4;stroke-dasharray:none">
        <path
           style="opacity:1;fill:none;fill-opacity:1;fill-rule:nonzero;stroke:#000000;stroke-width:0.03543307;stroke-linecap:butt;stroke-linejoin:miter;stroke-miterlimit:4;stroke-dasharray:none;stroke-dashoffset:29.05511856;stroke-opacity:1"
           d="m -1433.3363,211.82378 a 10.629921,10.629921 0 0 1 15.0177,0.70764 10.629921,10.629921 0 0 1 -0.709,15.01623 10.629921,10.629921 0 0 1 -15.0149,-0.70755 10.629921,10.629921 0 0 1 0.7062,-15.01632 z"
           id="path4551"
           inkscape:connector-curvature="0" />
        <path
           style="opacity:1;fill:none;fill-opacity:1;fill-rule:nonzero;stroke:#000000;stroke-width:0.03543307;stroke-linecap:butt;stroke-linejoin:miter;stroke-miterlimit:4;stroke-dasharray:none;stroke-dashoffset:29.05511856;stroke-opacity:1"
           d="m -1355.3835,211.82378 a 10.629921,10.629921 0 0 1 15.0177,0.70764 10.629921,10.629921 0 0 1 -0.709,15.01622 10.629921,10.629921 0 0 1 -15.0149,-0.70754 10.629921,10.629921 0 0 1 0.7062,-15.01632 z"
           id="path4553"
           inkscape:connector-curvature="0" />
      </g>
    </g>
  </g>
  <g
     inkscape:groupmode="layer"
     id="layer2"
     inkscape:label="testprint"
     style="display:inline">
    <use
       inkscape:transform-center-y="108.7859"
       inkscape:transform-center-x="666.50325"
       height="100%"
       width="100%"
       transform="matrix(8.7002942e-4,-0.99999962,0.99999962,8.7002942e-4,4464.2834,-3558.8496)"
       id="use4486"
       xlink:href="#path4402"
       y="0"
       x="0" />
    <g
       transform="matrix(-0.99462773,0.10351655,-0.10351655,-0.99462773,5843.07,-73.964617)"
       id="g4488">
      <path
         inkscape:connector-curvature="0"
         id="use4490"
         d="m 3315.4294,1161.4154 a 10.629921,10.629921 0 0 1 14.79,-2.7 10.629921,10.629921 0 0 1 2.6983,14.7888 10.629921,10.629921 0 0 1 -14.7872,2.6995 10.629921,10.629921 0 0 1 -2.7011,-14.7883 z"
         style="color:#000000;font-style:normal;font-variant:normal;font-weight:normal;font-stretch:normal;font-size:medium;line-height:normal;font-family:sans-serif;text-indent:0;text-align:start;text-decoration:none;text-decoration-line:none;text-decoration-style:solid;text-decoration-color:#000000;letter-spacing:normal;word-spacing:normal;text-transform:none;direction:ltr;block-progression:tb;writing-mode:lr-tb;baseline-shift:baseline;text-anchor:start;white-space:normal;clip-rule:nonzero;display:inline;overflow:visible;visibility:visible;opacity:1;isolation:auto;mix-blend-mode:normal;color-interpolation:sRGB;color-interpolation-filters:linearRGB;solid-color:#000000;solid-opacity:1;fill:none;fill-opacity:1;fill-rule:nonzero;stroke:#000000;stroke-width:0.03543307;stroke-linecap:butt;stroke-linejoin:round;stroke-miterlimit:4;stroke-dasharray:none;stroke-dashoffset:0;stroke-opacity:1;color-rendering:auto;image-rendering:auto;shape-rendering:auto;text-rendering:auto;enable-background:accumulate" />
      <use
         x="0"
         y="0"
         xlink:href="#path4348"
         id="use4492"
         transform="matrix(-0.04235065,-0.99910281,0.99910281,-0.04235065,4099.5084,-1073.6202)"
         width="100%"
         height="100%"
         inkscape:transform-center-x="635.22699"
         inkscape:transform-center-y="-78.09015" />
      <path
         id="use4494"
         d="m 2120.7524,1115.9133 a 10.629921,10.629921 0 0 1 13.4232,6.7711 10.629921,10.629921 0 0 1 -6.7718,13.4213 10.629921,10.629921 0 0 1 -13.4207,-6.7698 10.629921,10.629921 0 0 1 6.7693,-13.4226 z"
         style="fill:none;fill-rule:evenodd;stroke:#000000;stroke-width:0.03543307;stroke-linecap:butt;stroke-linejoin:miter;stroke-miterlimit:4;stroke-dasharray:none;stroke-opacity:1"
         inkscape:connector-curvature="0" />
    </g>
    <use
       inkscape:transform-center-y="231.60339"
       inkscape:transform-center-x="-447.10914"
       height="100%"
       width="100%"
       transform="matrix(-0.86769316,0.49710018,-0.49710018,-0.86769316,1700.3327,-853.96262)"
       id="use4496"
       xlink:href="#path4370"
       y="0"
       x="0" />
    <use
       inkscape:transform-center-y="139.93688"
       inkscape:transform-center-x="-93.070423"
       height="100%"
       width="100%"
       transform="matrix(0.33142712,-0.94348084,0.94348084,0.33142712,3780.6654,-1626.7484)"
       id="use4498"
       xlink:href="#path4364"
       y="0"
       x="0" />
    <use
       inkscape:transform-center-y="-188.88966"
       inkscape:transform-center-x="-359.22971"
       height="100%"
       width="100%"
       transform="matrix(-0.42463067,0.90536666,-0.90536666,-0.42463067,2965.9221,-571.06832)"
       id="use4500"
       xlink:href="#path4378"
       y="0"
       x="0" />
    <use
       height="100%"
       width="100%"
       transform="matrix(-0.28138143,0.959596,-0.959596,-0.28138143,2156.7838,-523.38612)"
       id="use4502"
       xlink:href="#path4386"
       y="0"
       x="0" />
    <use
       height="100%"
       width="100%"
       transform="matrix(0.66929864,0.74299349,-0.74299349,0.66929864,3262.9361,245.91698)"
       id="use4504"
       xlink:href="#path4394"
       y="0"
       x="0" />
  </g>
</svg>
