<?xml version="1.0" encoding="UTF-8" standalone="no"?>
<!-- Created with Inkscape (http://www.inkscape.org/) -->

<svg
   xmlns:dc="http://purl.org/dc/elements/1.1/"
   xmlns:cc="http://creativecommons.org/ns#"
   xmlns:rdf="http://www.w3.org/1999/02/22-rdf-syntax-ns#"
   xmlns:svg="http://www.w3.org/2000/svg"
   xmlns="http://www.w3.org/2000/svg"
   xmlns:xlink="http://www.w3.org/1999/xlink"
   xmlns:sodipodi="http://sodipodi.sourceforge.net/DTD/sodipodi-0.dtd"
   xmlns:inkscape="http://www.inkscape.org/namespaces/inkscape"
   width="400mm"
   height="300mm"
   viewBox="0 0 1417.3228 1062.9921"
   id="svg2"
   version="1.1"
   inkscape:version="0.91 r13725"
   sodipodi:docname="windows.svg">
  <defs
     id="defs4" />
  <sodipodi:namedview
     id="base"
     pagecolor="#ffffff"
     bordercolor="#666666"
     borderopacity="1.0"
     inkscape:pageopacity="0.0"
     inkscape:pageshadow="2"
     inkscape:zoom="0.065884844"
     inkscape:cx="-1796.9833"
     inkscape:cy="2313.163"
     inkscape:document-units="mm"
     inkscape:current-layer="layer1"
     showgrid="false"
     inkscape:window-width="1600"
     inkscape:window-height="850"
     inkscape:window-x="0"
     inkscape:window-y="0"
     inkscape:window-maximized="1"
     inkscape:snap-bbox="true"
     inkscape:bbox-paths="true"
     inkscape:snap-grids="true"
     inkscape:object-nodes="true"
     showguides="true"
     inkscape:guide-bbox="true"
     inkscape:snap-global="false">
    <inkscape:grid
       type="xygrid"
       id="grid4140" />
  </sodipodi:namedview>
  <metadata
     id="metadata7">
    <rdf:RDF>
      <cc:Work
         rdf:about="">
        <dc:format>image/svg+xml</dc:format>
        <dc:type
           rdf:resource="http://purl.org/dc/dcmitype/StillImage" />
        <dc:title />
      </cc:Work>
    </rdf:RDF>
  </metadata>
  <g
     inkscape:label="Layer 1"
     inkscape:groupmode="layer"
     id="layer1"
     transform="translate(0,10.629921)"
     style="display:none">
    <rect
       style="opacity:1;fill:none;fill-opacity:1;fill-rule:nonzero;stroke:#ff2b2b;stroke-width:3.54330707;stroke-linecap:butt;stroke-linejoin:miter;stroke-miterlimit:4;stroke-dasharray:none;stroke-dashoffset:29.05511856;stroke-opacity:1"
       id="rect4136"
       width="4216.5356"
       height="4216.5356"
       x="-2267.7166"
       y="-3305.9058" />
    <rect
       y="1335.8267"
       x="-6484.252"
       height="3791.3384"
       width="3791.3386"
       id="rect4138"
       style="opacity:1;fill:none;fill-opacity:1;fill-rule:nonzero;stroke:#ff2b2b;stroke-width:3.54330707;stroke-linecap:butt;stroke-linejoin:miter;stroke-miterlimit:4;stroke-dasharray:none;stroke-dashoffset:29.05511856;stroke-opacity:1" />
    <rect
       y="-3305.9058"
       x="-6484.252"
       height="4216.5356"
       width="3791.3386"
       id="rect4161"
       style="opacity:1;fill:none;fill-opacity:1;fill-rule:nonzero;stroke:#ff2b2b;stroke-width:3.54330707;stroke-linecap:butt;stroke-linejoin:miter;stroke-miterlimit:4;stroke-dasharray:none;stroke-dashoffset:29.05511856;stroke-opacity:1" />
    <rect
       style="opacity:1;fill:none;fill-opacity:1;fill-rule:nonzero;stroke:#ff2b2b;stroke-width:3.54330707;stroke-linecap:butt;stroke-linejoin:miter;stroke-miterlimit:4;stroke-dasharray:none;stroke-dashoffset:29.05511856;stroke-opacity:1"
       id="rect4163"
       width="3791.3386"
       height="4216.5356"
       x="1335.8267"
       y="-1948.8191"
       transform="matrix(0,1,-1,0,0,0)" />
    <path
       inkscape:connector-curvature="0"
       id="path4234"
       style="fill:#cd1e25;fill-opacity:1;fill-rule:nonzero;stroke:none"
       d="m -1208.7477,-2449.5106 305.13013,180.8299 c -6.0152,50.1388 -6.2064,105.3424 -6.0152,124.3139 2.793,268.8729 366.92903,473.2698 763.88303,469.1556 396.95407,-4.1146 679.67518,-244.5988 677.67763,-481.1856 -2.2615,-268.875 -260.82629,-479.38 -657.6244,-491.2066 -134.33479,-4.0059 -263.83397,22.8082 -322.7915,34.0804 l -222.54914,-142.3466 529.30481,-302.0045 1560.34184,906.9877 178.9408,-98.2232 c -172.1682,-283.0703 -415.972,-528.04 -723.35429,-705.0051 -955.057944,-549.8667 -2168.92081,-239.7071 -2745.75551,689.6559 l 177.4988,112.0668 485.313,-297.1186" />
    <path
       inkscape:connector-curvature="0"
       id="path4236"
       style="fill:#36409e;fill-opacity:1;fill-rule:nonzero;stroke:none"
       d="m 1471.2394,-1463.6941 -331.8026,173.4434 c -12.0306,-2.0086 -85.6751,-70.9503 -102.2514,-80.2014 -234.89053,-130.8585 -580.70767,42.1639 -773.91526,388.95463 -193.20869,346.76648 -176.727643,743.26354 58.15136,874.15806 234.90236,130.846444 584.67639,-26.15237 777.9086,-372.91889 31.1565,-55.9379 72.7795,-185.80985 92.2315,-242.60192 l 282.6836,-163.41068 -1.6703,620.46501 -1556.167644,908.80356 0.75772,204.76739 C 248.35362,838.58763 581.95952,748.27152 888.04126,569.06257 1839.0212,12.187194 2171.3888,-1195.7817 1650.2395,-2157.456 l -179.0001,98.2953 0,595.4666" />
    <text
       xml:space="preserve"
       style="font-style:normal;font-variant:normal;font-weight:normal;font-stretch:normal;font-size:2084.85717773px;line-height:94.99999881%;font-family:'Aero Matics Stencil';-inkscape-font-specification:'Aero Matics Stencil';text-align:start;letter-spacing:-100px;word-spacing:0px;text-anchor:start;fill:#000000;fill-opacity:1;stroke:none;stroke-width:1px;stroke-linecap:butt;stroke-linejoin:miter;stroke-opacity:1"
       x="-6541.3906"
       y="-1562.9634"
       id="text4290"
       sodipodi:linespacing="94.999999%"><tspan
         sodipodi:role="line"
         x="-6541.3906"
         y="-1562.9634"
         id="tspan4294"
         style="font-style:normal;font-variant:normal;font-weight:normal;font-stretch:normal;line-height:94.99999881%;font-family:'Adobe Helvetica';-inkscape-font-specification:'Adobe Helvetica';letter-spacing:-100px"
         dx="0 0.02">FAB</tspan><tspan
         sodipodi:role="line"
         x="-6541.3906"
         y="417.65091"
         id="tspan4298"
         style="font-style:normal;font-variant:normal;font-weight:normal;font-stretch:normal;line-height:94.99999881%;font-family:'Adobe Helvetica';-inkscape-font-specification:'Adobe Helvetica';letter-spacing:-100px"
         dx="0 0"><tspan
   style="line-height:94.99999881%;letter-spacing:-100px;word-spacing:0px"
   id="tspan4300"
   dx="0">L</tspan>AB</tspan></text>
    <rect
       style="opacity:1;fill:none;fill-opacity:1;fill-rule:nonzero;stroke:#000000;stroke-width:3.54330707;stroke-linecap:butt;stroke-linejoin:round;stroke-miterlimit:4;stroke-dasharray:none;stroke-dashoffset:29.05511856;stroke-opacity:1"
       id="rect4332"
       width="1417.3229"
       height="1062.9921"
       x="-3439.4722"
       y="-1346.3024"
       transform="scale(-1,-1)" />
    <g
       id="g4460">
      <path
         id="path4402"
         d="m -1918.8419,-2161.2237 c -12.9158,0.2155 -24.6913,7.4414 -30.7324,18.8594 -5.457,10.3156 -10.8183,20.6884 -16.1035,31.1074 l 40.6679,3.1563 20.3028,33.707 87.2226,57.5762 0,1198.98826 32.5078,-22.24219 38.3594,22.37696 0,-1218.18753 c -8e-4,-11.9037 -5.9782,-23.0117 -15.9121,-29.5703 l -136.2051,-89.9121 c -5.96,-3.9334 -12.9692,-5.9743 -20.1094,-5.8554 l 0,0 z"
         style="color:#000000;font-style:normal;font-variant:normal;font-weight:normal;font-stretch:normal;font-size:medium;line-height:normal;font-family:sans-serif;text-indent:0;text-align:start;text-decoration:none;text-decoration-line:none;text-decoration-style:solid;text-decoration-color:#000000;letter-spacing:normal;word-spacing:normal;text-transform:none;direction:ltr;block-progression:tb;writing-mode:lr-tb;baseline-shift:baseline;text-anchor:start;white-space:normal;clip-rule:nonzero;display:inline;overflow:visible;visibility:visible;opacity:1;isolation:auto;mix-blend-mode:normal;color-interpolation:sRGB;color-interpolation-filters:linearRGB;solid-color:#000000;solid-opacity:1;fill:none;fill-opacity:1;fill-rule:nonzero;stroke:#000000;stroke-width:3.54330707;stroke-linecap:butt;stroke-linejoin:round;stroke-miterlimit:4;stroke-dasharray:none;stroke-dashoffset:0;stroke-opacity:1;color-rendering:auto;image-rendering:auto;shape-rendering:auto;text-rendering:auto;enable-background:accumulate"
         inkscape:connector-curvature="0" />
      <path
         id="path4364"
         d="m -802.1524,-1297.0635 -37.88672,10.8242 -0.25,49.0879 c 96.7008,66.5844 189.35201,164.4268 261.53711,286.85742 l 0.004,0.006 0.008,0.0137 c 94.86495,160.88328 135.47244,332.15155 126.58398,473.85547 -8.89971,141.88302 -64.46524,249.89908 -158.38477,305.27539 -5.1742,3.04459 -10.47237,5.89509 -15.88476,8.58203 l -18.45117,49.26367 23.02929,26.226563 c 17.76374,-6.774926 30.5606,-13.174723 47.27735,-23.013673 l 0.0234,-0.0137 c 118.22754,-69.70867 183.1857,-203.52141 193.11915,-361.88477 9.92486,-158.22665 -34.62163,-341.45023 -135.69727,-513.2832 -0.002,-0.004 -0.004,-0.008 -0.006,-0.0117 l -0.0117,-0.0215 c -0.19282,-0.32776 -0.36732,-0.65864 -0.56054,-0.98633 l 0.0371,0.13477 c -0.0356,-0.0587 -0.0714,-0.1173 -0.10742,-0.17579 l 0.0703,0.0391 C -595.4405,-1118.1357 -695.20853,-1224.1055 -802.1524,-1297.0635 Z"
         style="color:#000000;font-style:normal;font-variant:normal;font-weight:normal;font-stretch:normal;font-size:medium;line-height:normal;font-family:sans-serif;text-indent:0;text-align:start;text-decoration:none;text-decoration-line:none;text-decoration-style:solid;text-decoration-color:#000000;letter-spacing:normal;word-spacing:normal;text-transform:none;direction:ltr;block-progression:tb;writing-mode:lr-tb;baseline-shift:baseline;text-anchor:start;white-space:normal;clip-rule:nonzero;display:inline;overflow:visible;visibility:visible;opacity:1;isolation:auto;mix-blend-mode:normal;color-interpolation:sRGB;color-interpolation-filters:linearRGB;solid-color:#000000;solid-opacity:1;fill:none;fill-opacity:1;fill-rule:nonzero;stroke:#000000;stroke-width:3.54330707;stroke-linecap:butt;stroke-linejoin:round;stroke-miterlimit:4;stroke-dasharray:none;stroke-dashoffset:0;stroke-opacity:1;color-rendering:auto;image-rendering:auto;shape-rendering:auto;text-rendering:auto;enable-background:accumulate"
         inkscape:connector-curvature="0" />
      <path
         id="path4232"
         d="m -2083.1817,-832.9014 -32.6465,19.88281 -36.8125,-6.0293 c 82.516,452.80098 314.1712,853.475856 642.2441,1149.28125 l 6.002,-42.00781 40.4004,-11.16406 c -316.5255,-285.6200201 -539.851,-672.50304 -619.1875,-1109.96289 z"
         style="color:#000000;font-style:normal;font-variant:normal;font-weight:normal;font-stretch:normal;font-size:medium;line-height:normal;font-family:sans-serif;text-indent:0;text-align:start;text-decoration:none;text-decoration-line:none;text-decoration-style:solid;text-decoration-color:#000000;letter-spacing:normal;word-spacing:normal;text-transform:none;direction:ltr;block-progression:tb;writing-mode:lr-tb;baseline-shift:baseline;text-anchor:start;white-space:normal;clip-rule:nonzero;display:inline;overflow:visible;visibility:visible;opacity:1;isolation:auto;mix-blend-mode:normal;color-interpolation:sRGB;color-interpolation-filters:linearRGB;solid-color:#000000;solid-opacity:1;fill:none;fill-opacity:1;fill-rule:nonzero;stroke:#000000;stroke-width:3.54330707;stroke-linecap:butt;stroke-linejoin:round;stroke-miterlimit:4;stroke-dasharray:none;stroke-dashoffset:0;stroke-opacity:1;color-rendering:auto;image-rendering:auto;shape-rendering:auto;text-rendering:auto;enable-background:accumulate"
         inkscape:connector-curvature="0" />
      <path
         inkscape:connector-curvature="0"
         id="path4348"
         d="m -1965.6778,-2111.2569 c -140.6818,277.3336 -220.1719,591.0022 -220.1719,923.2461 0,125.981 11.4005,249.29026 33.209,368.96291 l 36.8125,6.0293 32.6465,-19.88281 c -20.8876,-115.17334 -31.8028,-233.8484 -31.8028,-355.1074 0,-319.0676 75.957,-619.8416 210.2774,-886.3848 l -20.3028,-33.707 -40.6679,-3.1563 z"
         style="fill:none;fill-rule:evenodd;stroke:#000000;stroke-width:3.54330707;stroke-linecap:butt;stroke-linejoin:miter;stroke-miterlimit:4;stroke-dasharray:none;stroke-opacity:1" />
      <path
         inkscape:connector-curvature="0"
         id="path4356"
         d="m -1463.9942,277.06145 -40.4004,11.1641 -6.002,42.0078 c 331.1925,298.6181 760.64664,490.3586 1234.12701,520.959 l 18.2832,-36.5274 -16.82812,-34.498 c -456.41945,-30.2087 -870.14219,-215.2187 -1189.17969,-503.1055 z"
         style="fill:none;fill-rule:evenodd;stroke:#000000;stroke-width:3.54330707;stroke-linecap:butt;stroke-linejoin:miter;stroke-miterlimit:4;stroke-dasharray:none;stroke-opacity:1" />
      <path
         inkscape:connector-curvature="0"
         id="path4370"
         d="m -1784.9767,-840.07134 -32.5078,22.24219 0,572.54297 a 35.436614,35.436614 0 0 0 17.834,30.75391 l 555.9219,318.14843 a 35.436614,35.436614 0 0 0 53.0332,-30.753897 l 0,-16.15234 -50.1074,1.84961 -20.7598,-46.80078 -485.0547,-277.591803 0,-551.86133 -38.3594,-22.37696 z"
         style="fill:none;fill-rule:evenodd;stroke:#000000;stroke-width:3.54330707;stroke-linecap:butt;stroke-linejoin:miter;stroke-miterlimit:4;stroke-dasharray:none;stroke-opacity:1" />
      <path
         inkscape:connector-curvature="0"
         id="path4378"
         d="m -626.42779,-162.56351 c -8.1427,4.04237 -16.5507,7.70421 -25.2383,11.01758 l -18.2461,6.95898 c -13.7324,5.23836 -22.8058,18.40987 -22.8067,33.10742 l 0,576.22852 0,18.9082 c 0,14.53219 8.8693,27.59244 22.3789,32.94727 l 13.9219,5.51758 381.69728,155.46481 -0.0937,102.5801 16.82813,34.4981 -18.2832,36.5273 c 11.6985,0.756 23.42238,1.4181 35.17382,1.9766 20.19269,0.9576 37.09387,-15.144 37.11524,-35.3594 l 0.15039,-164.0098 c 0.0127,-14.42 -8.71374,-27.4097 -22.06836,-32.8496 l -395.94725,-161.26757 -7.9942,-3.25586 c -0.1033,-0.0422 -0.2068,-0.0838 -0.3105,-0.125 l 8.3047,3.29102 0,-546.66602 -23.0293,-26.22656 18.4512,-49.26367 z"
         style="fill:none;fill-rule:evenodd;stroke:#000000;stroke-width:3.54330707;stroke-linecap:butt;stroke-linejoin:miter;stroke-miterlimit:4;stroke-dasharray:none;stroke-opacity:1" />
      <path
         id="path4386"
         d="m -1422.5782,-1185.9834 -42.5723,7.539 c -22.4412,53.9391 -35.7655,114.7214 -39.8379,179.63479 -9.9458,158.53736 34.7725,342.17432 136.252,514.30664 l 0,0.008 c 32.7432,55.51883 69.437,106.37131 108.8925,152.17382 l -1.7187,-1.99414 0,346.074221 20.7598,46.800781 50.1074,-1.849609 0,-404.181643 c -7e-4,-8.48809 -3.0481,-16.69396 -8.5879,-23.125 l -6.8691,-7.97461 c -36.7056,-42.61026 -70.9479,-90.05035 -101.5411,-141.92382 -94.8525,-160.89356 -135.4602,-332.16946 -126.5703,-473.875 3.7714,-60.11623 15.923,-114.14803 35.8164,-160.67573 l -24.1308,-30.9375 z"
         style="fill:none;fill-rule:evenodd;stroke:#000000;stroke-width:3.54330707;stroke-linecap:butt;stroke-linejoin:miter;stroke-miterlimit:4;stroke-dasharray:none;stroke-opacity:1"
         inkscape:connector-curvature="0" />
      <path
         id="path4394"
         d="m -1129.295,-1409.3428 c -65.0814,0.3669 -127.1567,15.9797 -182.5762,48.6524 -69.7653,41.1348 -120.9732,104.5962 -153.2793,182.246 l 42.5723,-7.539 24.1308,30.9375 c 27.0572,-63.2827 68.4387,-112.6803 122.5625,-144.5938 93.9215,-55.3715 215.3264,-51.7001 343.77742,9.1953 30.66672,14.5383 61.4421,32.3771 91.81836,53.293 l 0.25,-49.0879 37.88672,-10.8242 c -32.67097,-22.2884 -66.0105,-41.4971 -99.59766,-57.4199 -76.166,-36.1083 -153.78604,-55.2752 -227.54494,-54.8594 z"
         style="fill:none;fill-rule:evenodd;stroke:#000000;stroke-width:3.54330707;stroke-linecap:butt;stroke-linejoin:miter;stroke-miterlimit:4;stroke-dasharray:none;stroke-opacity:1"
         inkscape:connector-curvature="0" />
    </g>
    <use
       x="0"
       y="0"
       xlink:href="#path4402"
       id="use4442"
       transform="matrix(8.7002942e-4,-0.99999962,0.99999962,8.7002942e-4,4198.6684,-1454.0461)"
       width="100%"
       height="100%"
       inkscape:transform-center-x="666.50325"
       inkscape:transform-center-y="108.7859" />
    <g
       id="g4471"
       transform="matrix(-0.99462773,0.10351655,-0.10351655,-0.99462773,5577.455,2030.8389)">
      <use
         inkscape:transform-center-y="-88.916899"
         inkscape:transform-center-x="-631.02839"
         height="100%"
         width="100%"
         transform="matrix(0.56862449,-0.82259723,0.82259723,0.56862449,3977.1747,-241.16952)"
         id="use4446"
         xlink:href="#path4232"
         y="0"
         x="0" />
      <use
         inkscape:transform-center-y="-78.09015"
         inkscape:transform-center-x="635.22699"
         height="100%"
         width="100%"
         transform="matrix(-0.04235065,-0.99910281,0.99910281,-0.04235065,4099.5084,-1073.6202)"
         id="use4448"
         xlink:href="#path4348"
         y="0"
         x="0" />
      <use
         height="100%"
         width="100%"
         transform="matrix(0.94979749,-0.31286531,0.31286531,0.94979749,3423.7778,364.66295)"
         id="use4450"
         xlink:href="#path4356"
         y="0"
         x="0"
         inkscape:transform-center-x="-648.36219"
         inkscape:transform-center-y="-93.431655" />
    </g>
    <use
       x="0"
       y="0"
       xlink:href="#path4370"
       id="use4452"
       transform="matrix(-0.86769316,0.49710018,-0.49710018,-0.86769316,1434.7177,1250.8409)"
       width="100%"
       height="100%"
       inkscape:transform-center-x="-447.10914"
       inkscape:transform-center-y="231.60339" />
    <use
       x="0"
       y="0"
       xlink:href="#path4364"
       id="use4444"
       transform="matrix(0.33142712,-0.94348084,0.94348084,0.33142712,3515.0504,478.05512)"
       width="100%"
       height="100%"
       inkscape:transform-center-x="-93.070423"
       inkscape:transform-center-y="139.93688" />
    <use
       x="0"
       y="0"
       xlink:href="#path4378"
       id="use4454"
       transform="matrix(-0.42463067,0.90536666,-0.90536666,-0.42463067,2700.3071,1533.7352)"
       width="100%"
       height="100%"
       inkscape:transform-center-x="-359.22971"
       inkscape:transform-center-y="-188.88966" />
    <use
       x="0"
       y="0"
       xlink:href="#path4386"
       id="use4456"
       transform="matrix(-0.28138143,0.959596,-0.959596,-0.28138143,1891.1688,1581.4174)"
       width="100%"
       height="100%" />
    <use
       x="0"
       y="0"
       xlink:href="#path4394"
       id="use4458"
       transform="matrix(0.66929864,0.74299349,-0.74299349,0.66929864,2997.3211,2350.7205)"
       width="100%"
       height="100%" />
    <rect
       transform="matrix(-1,0,0,-1,0,-10.629921)"
       y="758.5011"
       x="-3705.0872"
       height="1062.9921"
       width="1417.3229"
       id="rect4484"
       style="opacity:1;fill:none;fill-opacity:1;fill-rule:nonzero;stroke:#000000;stroke-width:3.54330707;stroke-linecap:butt;stroke-linejoin:round;stroke-miterlimit:4;stroke-dasharray:none;stroke-dashoffset:29.05511856;stroke-opacity:1" />
  </g>
  <g
     inkscape:groupmode="layer"
     id="layer2"
     inkscape:label="testprint"
     style="display:inline">
    <use
       inkscape:transform-center-y="108.7859"
       inkscape:transform-center-x="666.50325"
       height="100%"
       width="100%"
       transform="matrix(8.7002942e-4,-0.99999962,0.99999962,8.7002942e-4,4464.2834,-3558.8496)"
       id="use4486"
       xlink:href="#path4402"
       y="0"
       x="0" />
    <g
       transform="matrix(-0.99462773,0.10351655,-0.10351655,-0.99462773,5843.07,-73.964617)"
       id="g4488">
      <use
         x="0"
         y="0"
         xlink:href="#path4232"
         id="use4490"
         transform="matrix(0.56862449,-0.82259723,0.82259723,0.56862449,3977.1747,-241.16952)"
         width="100%"
         height="100%"
         inkscape:transform-center-x="-631.02839"
         inkscape:transform-center-y="-88.916899" />
      <use
         x="0"
         y="0"
         xlink:href="#path4348"
         id="use4492"
         transform="matrix(-0.04235065,-0.99910281,0.99910281,-0.04235065,4099.5084,-1073.6202)"
         width="100%"
         height="100%"
         inkscape:transform-center-x="635.22699"
         inkscape:transform-center-y="-78.09015" />
      <use
         inkscape:transform-center-y="-93.431655"
         inkscape:transform-center-x="-648.36219"
         x="0"
         y="0"
         xlink:href="#path4356"
         id="use4494"
         transform="matrix(0.94979749,-0.31286531,0.31286531,0.94979749,3423.7778,364.66295)"
         width="100%"
         height="100%" />
    </g>
    <use
       inkscape:transform-center-y="231.60339"
       inkscape:transform-center-x="-447.10914"
       height="100%"
       width="100%"
       transform="matrix(-0.86769316,0.49710018,-0.49710018,-0.86769316,1700.3327,-853.96262)"
       id="use4496"
       xlink:href="#path4370"
       y="0"
       x="0" />
    <use
       inkscape:transform-center-y="139.93688"
       inkscape:transform-center-x="-93.070423"
       height="100%"
       width="100%"
       transform="matrix(0.33142712,-0.94348084,0.94348084,0.33142712,3780.6654,-1626.7484)"
       id="use4498"
       xlink:href="#path4364"
       y="0"
       x="0" />
    <use
       inkscape:transform-center-y="-188.88966"
       inkscape:transform-center-x="-359.22971"
       height="100%"
       width="100%"
       transform="matrix(-0.42463067,0.90536666,-0.90536666,-0.42463067,2965.9221,-571.06832)"
       id="use4500"
       xlink:href="#path4378"
       y="0"
       x="0" />
    <use
       height="100%"
       width="100%"
       transform="matrix(-0.28138143,0.959596,-0.959596,-0.28138143,2156.7838,-523.38612)"
       id="use4502"
       xlink:href="#path4386"
       y="0"
       x="0" />
    <use
       height="100%"
       width="100%"
       transform="matrix(0.66929864,0.74299349,-0.74299349,0.66929864,3262.9361,245.91698)"
       id="use4504"
       xlink:href="#path4394"
       y="0"
       x="0" />
  </g>
</svg>
