<?xml version="1.0" encoding="UTF-8" standalone="no"?>
<!-- Created with Inkscape (http://www.inkscape.org/) -->

<svg
   xmlns:dc="http://purl.org/dc/elements/1.1/"
   xmlns:cc="http://creativecommons.org/ns#"
   xmlns:rdf="http://www.w3.org/1999/02/22-rdf-syntax-ns#"
   xmlns:svg="http://www.w3.org/2000/svg"
   xmlns="http://www.w3.org/2000/svg"
   xmlns:sodipodi="http://sodipodi.sourceforge.net/DTD/sodipodi-0.dtd"
   xmlns:inkscape="http://www.inkscape.org/namespaces/inkscape"
   width="210mm"
   height="297mm"
   viewBox="0 0 744.09448819 1052.3622047"
   id="svg6836"
   version="1.1"
   inkscape:version="0.91 r13725">
  <defs
     id="defs6838" />
  <sodipodi:namedview
     id="base"
     pagecolor="#ffffff"
     bordercolor="#666666"
     borderopacity="1.0"
     inkscape:pageopacity="0.0"
     inkscape:pageshadow="2"
     inkscape:zoom="0.44433594"
     inkscape:cx="174.13846"
     inkscape:cy="520"
     inkscape:document-units="px"
     inkscape:current-layer="layer1"
     showgrid="false"
     inkscape:window-width="1600"
     inkscape:window-height="850"
     inkscape:window-x="0"
     inkscape:window-y="0"
     inkscape:window-maximized="1" />
  <metadata
     id="metadata6841">
    <rdf:RDF>
      <cc:Work
         rdf:about="">
        <dc:format>image/svg+xml</dc:format>
        <dc:type
           rdf:resource="http://purl.org/dc/dcmitype/StillImage" />
        <dc:title></dc:title>
      </cc:Work>
    </rdf:RDF>
  </metadata>
  <g
     inkscape:label="Layer 1"
     inkscape:groupmode="layer"
     id="layer1">
    <path
       inkscape:connector-curvature="0"
       id="path5854-4"
       style="display:inline;opacity:1;fill:none;fill-opacity:1;fill-rule:nonzero;stroke:#000000;stroke-width:0.035;stroke-linecap:butt;stroke-linejoin:miter;stroke-miterlimit:4;stroke-dasharray:none;stroke-dashoffset:29.05511856;stroke-opacity:1"
       d="m 429.90861,254.2788 a 10.629921,10.629921 0 0 1 15.0177,0.70764 10.629921,10.629921 0 0 1 -0.709,15.01622 10.629921,10.629921 0 0 1 -15.0149,-0.70754 10.629921,10.629921 0 0 1 0.7062,-15.01632 z m -77.95278,0 a 10.629921,10.629921 0 0 1 15.0177,0.70764 10.629921,10.629921 0 0 1 -0.709,15.01623 10.629921,10.629921 0 0 1 -15.0149,-0.70755 10.629921,10.629921 0 0 1 0.7062,-15.01632 z m -24.7404,-11.56296 0,38.89278 8.8901,8.8949 123.98388,-0.0366 8.8582,-8.85827 0,-38.76515 -8.8608,-9.06949 -124.01578,0 z m 450.44868,-18.79892 a 10.629921,10.629921 0 0 1 0.7076,-15.0177 10.629921,10.629921 0 0 1 15.0162,0.709 10.629921,10.629921 0 0 1 -0.7075,15.0149 10.629921,10.629921 0 0 1 -15.0163,-0.7062 z m 0,77.9528 a 10.629921,10.629921 0 0 1 0.7076,-15.0177 10.629921,10.629921 0 0 1 15.0162,0.709 10.629921,10.629921 0 0 1 -0.7075,15.0149 10.629921,10.629921 0 0 1 -15.0163,-0.7062 z m -11.563,24.7404 38.8928,0 8.8949,-8.8901 -0.037,-123.9839 -8.8583,-8.8582 -38.7651,0 -9.0695,8.8608 0,124.0158 z M -33.325066,10.908518 a 10.629921,10.629921 0 0 1 15.0177,0.7076 10.629921,10.629921 0 0 1 -0.709,15.0162 10.629921,10.629921 0 0 1 -15.0149,-0.7075 10.629921,10.629921 0 0 1 0.7062,-15.0163 z m -77.952804,0 a 10.629921,10.629921 0 0 1 15.017704,0.7076 10.629921,10.629921 0 0 1 -0.709,15.0162 10.629921,10.629921 0 0 1 -15.014904,-0.7075 10.629921,10.629921 0 0 1 0.7062,-15.0163 z m -24.7404,-11.56300289 0,38.89280289 8.8901,8.8949 123.9839043,-0.037 8.8582,-8.8583 0,-38.76510289 -8.8608,-9.06950001 -124.0158043,0 z M 238.39563,116.7283 a 10.629921,10.629921 0 0 1 15.0177,0.70764 10.629921,10.629921 0 0 1 -0.709,15.01622 10.629921,10.629921 0 0 1 -15.0149,-0.70754 10.629921,10.629921 0 0 1 0.7062,-15.01632 z m -77.9528,0 a 10.629921,10.629921 0 0 1 15.0177,0.70764 10.629921,10.629921 0 0 1 -0.709,15.01623 10.629921,10.629921 0 0 1 -15.0149,-0.70755 10.629921,10.629921 0 0 1 0.7062,-15.01632 z m -24.7404,-11.56296 0,38.89278 8.8901,8.8949 123.9839,-0.0366 8.8582,-8.85827 0,-38.76515 -8.8608,-9.069492 -124.0158,0 z m -515.0123,362.29392 a 10.629921,10.629921 0 0 1 15.0177,0.70764 10.629921,10.629921 0 0 1 -0.709,15.01622 10.629921,10.629921 0 0 1 -15.0149,-0.70754 10.629921,10.629921 0 0 1 0.7062,-15.01632 z m -77.9528,0 a 10.629921,10.629921 0 0 1 15.0177,0.70764 10.629921,10.629921 0 0 1 -0.709,15.01623 10.629921,10.629921 0 0 1 -15.0149,-0.70755 10.629921,10.629921 0 0 1 0.7062,-15.01632 z m -24.7404,-11.56296 0,38.89278 8.8901,8.8949 123.9839,-0.0366 8.8582,-8.85827 0,-38.76515 -8.8608,-9.06949 -124.0158,0 z M 770.88181,895.08212 a 10.629921,10.629921 0 0 1 -0.7076,15.01768 10.629921,10.629921 0 0 1 -15.0162,-0.709 10.629921,10.629921 0 0 1 0.7075,-15.01488 10.629921,10.629921 0 0 1 15.0163,0.7062 z m 0,-77.9528 a 10.629921,10.629921 0 0 1 -0.7076,15.0177 10.629921,10.629921 0 0 1 -15.0163,-0.709 10.629921,10.629921 0 0 1 0.7076,-15.0149 10.629921,10.629921 0 0 1 15.0163,0.7062 z m 11.563,-24.7404 -38.8928,0 -8.8949,8.8901 0.037,123.98388 8.8583,8.8582 38.7651,0 9.0695,-8.8608 0,-124.01578 z M -257.20757,400.94366 a 10.629921,10.629921 0 0 1 15.0177,0.70764 10.629921,10.629921 0 0 1 -0.709,15.01622 10.629921,10.629921 0 0 1 -15.0149,-0.70754 10.629921,10.629921 0 0 1 0.7062,-15.01632 z m -77.9528,0 a 10.629921,10.629921 0 0 1 15.0177,0.70764 10.629921,10.629921 0 0 1 -0.709,15.01623 10.629921,10.629921 0 0 1 -15.0149,-0.70755 10.629921,10.629921 0 0 1 0.7062,-15.01632 z m -24.7404,-11.56296 0,38.89278 8.8901,8.8949 123.9839,-0.0366 8.8582,-8.85827 0,-38.76515 -8.8608,-9.06949 -124.0158,0 z m -114.3347,-100.41414 a 10.629921,10.629921 0 0 1 15.0177,0.70764 10.629921,10.629921 0 0 1 -0.709,15.01622 10.629921,10.629921 0 0 1 -15.0149,-0.70754 10.629921,10.629921 0 0 1 0.7062,-15.01632 z m -77.9528,0 a 10.629921,10.629921 0 0 1 15.0177,0.70764 10.629921,10.629921 0 0 1 -0.709,15.01623 10.629921,10.629921 0 0 1 -15.0149,-0.70755 10.629921,10.629921 0 0 1 0.7062,-15.01632 z m -24.7404,-11.56296 0,38.89278 8.8901,8.8949 123.9839,-0.0366 8.8582,-8.85827 0,-38.76515 -8.8608,-9.06949 -124.0158,0 z M 772.70951,5.4741181 a 10.629921,10.629921 0 0 1 15.0177,0.7076 10.629921,10.629921 0 0 1 -0.709,15.0161999 10.629921,10.629921 0 0 1 -15.0149,-0.7075 10.629921,10.629921 0 0 1 0.7062,-15.0162999 z m -77.9528,0 a 10.629921,10.629921 0 0 1 15.0177,0.7076 10.629921,10.629921 0 0 1 -0.709,15.0161999 10.629921,10.629921 0 0 1 -15.0149,-0.7075 10.629921,10.629921 0 0 1 0.7062,-15.0162999 z m -24.7404,-11.563003 0,38.8928029 8.8901,8.8949 123.9839,-0.037 8.8582,-8.8583 0,-38.7651029 -8.8608,-9.0695001 -124.0158,0 z M -307.19647,154.11812 a 10.629921,10.629921 0 0 0 15.0177,-0.7076 10.629921,10.629921 0 0 0 -0.709,-15.0162 10.629921,10.629921 0 0 0 -15.0149,0.7075 10.629921,10.629921 0 0 0 0.7062,15.0163 z m -159.4483,0 a 10.629921,10.629921 0 0 0 15.0177,-0.7076 10.629921,10.629921 0 0 0 -0.709,-15.0162 10.629921,10.629921 0 0 0 -15.0149,0.7075 10.629921,10.629921 0 0 0 0.7062,15.0163 z m -28.2782,11.563 0,-38.8928 8.8901,-8.8949 212.5666,0.037 8.8582,8.8583 0,38.7651 -8.8608,9.0695 -212.5985,0 z m -39.1648,69.85458 a 10.629921,10.629921 0 0 1 -15.0177,-0.70764 10.629921,10.629921 0 0 1 0.709,-15.01622 10.629921,10.629921 0 0 1 15.0149,0.70754 10.629921,10.629921 0 0 1 -0.7062,15.01632 z m 60.2363,0 a 10.629921,10.629921 0 0 1 -15.0177,-0.70764 10.629921,10.629921 0 0 1 0.709,-15.01623 10.629921,10.629921 0 0 1 15.0149,0.70755 10.629921,10.629921 0 0 1 -0.7062,15.01632 z m 159.4483,0 a 10.629921,10.629921 0 0 1 -15.0177,-0.70764 10.629921,10.629921 0 0 1 0.709,-15.01622 10.629921,10.629921 0 0 1 15.0149,0.70754 10.629921,10.629921 0 0 1 -0.7062,15.01632 z m 60.2363,0 a 10.629921,10.629921 0 0 1 -15.0177,-0.70764 10.629921,10.629921 0 0 1 0.709,-15.01623 10.629921,10.629921 0 0 1 15.0149,0.70755 10.629921,10.629921 0 0 1 -0.7062,15.01632 z m 24.7348,11.56296 0,-38.89278 -8.8901,-8.8949 -325.9524,0.0366 -8.8582,8.85827 0,38.76515 8.8608,9.06949 325.9843,0 z m 939.36478,618.10973 -1.1689,-38.20673 23.4208,-29.03408 C 297.69283,646.13038 -165.11557,649.72098 -584.34237,788.9384 l 33.5653,25.96249 -10.2416,40.64406 c 404.6679,-134.20554 851.37,-137.36319 1270.95138,9.66344 z m -28.816,-45.25454 a 10.629921,10.629921 0 0 1 -5.0535,4.84109 10.629921,10.629921 0 0 1 -14.0849,-5.24904 10.629921,10.629921 0 0 1 5.2483,-14.08755 10.629921,10.629921 0 0 1 14.0882,5.25097 10.629921,10.629921 0 0 1 -0.1981,9.24453 z M 63.076234,744.46783 a 10.629921,10.629921 0 0 1 -2.4878,3.0323 10.629921,10.629921 0 0 1 -14.9753,-1.3119 10.629921,10.629921 0 0 1 1.3093,-14.9745 10.629921,10.629921 0 0 1 14.9754,1.30754 10.629921,10.629921 0 0 1 1.1784,11.94656 z m -567.520404,63.86116 a 10.629921,10.629921 0 0 1 -14.5195,3.90168 10.629921,10.629921 0 0 1 -3.901,-14.5168 10.629921,10.629921 0 0 1 14.5169,-3.901 10.629921,10.629921 0 0 1 3.9036,14.51612 z M 720.35841,875.50047 C 425.83921,775.68193 104.05503,741.5998 -224.81307,788.84131 c -124.701,17.91315 -245.1364,46.73107 -360.4922,85.33415 l -0.7337,37.29574 24.3228,29.4877 c 111.0331,-37.0518 226.9504,-64.7304 346.9773,-81.97213 315.8258,-45.36799 624.34398,-12.94958 907.27788,82.10643 l 30.4777,-24.8893 -2.6583,-40.70343 z m -17.5557,25.27253 a 10.629921,10.629921 0 0 1 -6.8657,11.5723 10.629921,10.629921 0 0 1 -13.6297,-6.3393 10.629921,10.629921 0 0 1 6.3391,-13.63168 10.629921,10.629921 0 0 1 13.6319,6.34102 10.629921,10.629921 0 0 1 0.5244,2.05766 z m -1241.77148,-4.63088 a 10.629921,10.629921 0 0 1 -1.0302,6.92188 10.629921,10.629921 0 0 1 -14.3491,4.4764 10.629921,10.629921 0 0 1 -4.4787,-14.3508 10.629921,10.629921 0 0 1 14.3531,-4.47693 10.629921,10.629921 0 0 1 5.5049,7.42945 z M 757.26351,726.46823 C 338.38093,573.50217 -131.62167,556.42074 -582.14467,705.24625 l -3.2839,40.71562 28.5151,25.69251 c 434.5554,-142.8036 887.4526,-126.07554 1291.04718,21.48816 l 33.286,-25.47349 -10.1562,-41.20082 z m -20.1058,18.79841 a 10.629921,10.629921 0 0 1 3.6786,4.716 10.629921,10.629921 0 0 1 -5.9634,13.80048 10.629921,10.629921 0 0 1 -13.7984,-5.96922 10.629921,10.629921 0 0 1 5.968,-13.79693 10.629921,10.629921 0 0 1 10.1152,1.24967 z M -545.55307,723.07956 a 10.629921,10.629921 0 0 1 3.0539,13.10586 10.629921,10.629921 0 0 1 -14.2235,4.85769 10.629921,10.629921 0 0 1 -4.8619,-14.22449 10.629921,10.629921 0 0 1 14.2274,-4.85946 10.629921,10.629921 0 0 1 1.8026,1.11923 z M 15.140534,311.9303 c -7.9259997,0.41781 -15.85949974,3.50115 -23.0480997,8.03513 l -13.3672003,8.7045 -378.648004,232.2905 -93.9143,-49.42052 -38.3655,-1.14 -23.84,-33.16932 c -6.1081,10.00589 -12.1449,20.07737 -18.1028,30.22195 -10.2355,17.43257 -3.8374,39.88381 14.0506,49.30108 l 145.1368,76.3826 c 12.7609,6.71524 28.3181,5.02776 39.3431,-4.2668 L 17.163834,387.90445 435.31971,607.4779 l 33.9256,-8.19544 35.0392,39.2393 0,5e-5 c 0.2067,-9.08858 0.8721,-18.23637 1.9776,-27.46846 l 2.3229,-19.3879 c 1.7465,-14.59347 -5.6977,-28.75196 -18.7099,-35.58574 L 48.405334,324.26017 l -16.7406,-8.79162 c -4.8247,-2.53358 -9.8709,-3.62223 -14.9407,-3.58613 -0.5282,0.004 -1.057,0.0204 -1.5854,0.0475 z M -544.99907,520.27195 a 10.629921,10.629921 0 0 1 10.8102,8.01684 10.629921,10.629921 0 0 1 -7.704,12.90674 10.629921,10.629921 0 0 1 -12.9087,-7.70193 10.629921,10.629921 0 0 1 7.7039,-12.91074 10.629921,10.629921 0 0 1 2.0986,-0.31091 z m 978.40508,37.76059 c 1.3802,-0.0453 2.7912,0.17264 4.1621,0.69715 5.4848,2.09738 8.2303,8.24615 6.1311,13.73024 -0.1268,0.33114 -0.2691,0.65429 -0.4283,0.97113 -2.4513,4.8781 -8.1996,7.10744 -13.2983,5.1559 -5.4824,-2.09739 -8.2271,-8.24158 -6.1308,-13.72445 1.5728,-4.1131 5.4238,-6.68582 9.5642,-6.82997 z m -848.73128,38.19614 a 10.629921,10.629921 0 0 1 10.8714,7.93231 10.629921,10.629921 0 0 1 -7.6019,12.96721 10.629921,10.629921 0 0 1 -12.9692,-7.59993 10.629921,10.629921 0 0 1 7.6018,-12.9711 10.629921,10.629921 0 0 1 2.0979,-0.32849 z M 670.33491,184.79479 c -43.8315,-48.10949 -96.9786,-83.78141 -158.3464,-103.089952 -77.2567,-24.30372 -158.68148,-19.87622 -237.99718,8.09148 l 34.095,26.585102 -6.8357,38.63546 c 65.128,-22.25171 129.52668,-24.56727 189.46318,-5.7133 104.0022,32.723 182.5305,125.38331 223.2577,261.57879 9.7234,32.51564 17.0672,67.32103 21.8576,103.88937 l 36.6393,-32.66871 33.3998,20.90496 c -5.3065,-39.19191 -13.3486,-76.81932 -23.9979,-112.43147 -24.1496,-80.75808 -61.8597,-151.25764 -111.5354,-205.78173 z m 98.368,256.72692 a 10.629921,10.629921 0 0 1 0.3019,13.45527 10.629921,10.629921 0 0 1 -14.9195,1.83387 10.629921,10.629921 0 0 1 -1.8353,-14.9182 10.629921,10.629921 0 0 1 14.9197,-1.83666 10.629921,10.629921 0 0 1 1.5332,1.46572 z M 350.89713,100.92324 a 10.629921,10.629921 0 0 1 1.0616,12.57384 10.629921,10.629921 0 0 1 -14.6215,3.48963 10.629921,10.629921 0 0 1 -3.4909,-14.62294 10.629921,10.629921 0 0 1 14.6229,-3.490902 10.629921,10.629921 0 0 1 2.4279,2.050372 z m 460.34058,65.51185 4.7447,-42.97354 C 770.53721,86.749598 715.95991,56.860618 654.81521,34.687318 505.48201,-19.466085 316.68183,-28.226585 122.94983,20.717918 l -0.01,0 c -62.488896,15.7983 -121.6116957,36.7006 -176.665696,61.67395 l 2.3972,-1.08814 -332.091404,-97.378813 -50.7513,6.7521001 -12.3244,48.6033029 387.851104,113.729222 c 8.1453,2.38771 16.8771,1.77242 24.6071,-1.73397 l 9.5852,-4.34766 c 51.217,-23.23281 106.3754,-42.74282 164.761396,-57.503702 181.0825,-45.74759 356.86438,-36.52079 490.34308,11.883272 56.6261,20.53461 105.0555,47.39878 144.1057,79.58044 l 36.4774,-14.45058 z m -22.0971,-24.06097 a 10.629921,10.629921 0 0 1 -10.1474,7.50046 10.629921,10.629921 0 0 1 -10.6419,-10.6167 10.629921,10.629921 0 0 1 10.6173,-10.64373 10.629921,10.629921 0 0 1 10.6432,10.61916 10.629921,10.629921 0 0 1 -0.4712,3.14081 z M -362.25497,24.782218 a 10.629921,10.629921 0 0 1 -1.258,2.5823 10.629921,10.629921 0 0 1 -14.7453,2.9263 10.629921,10.629921 0 0 1 -2.9286,-14.7441 10.629921,10.629921 0 0 1 14.744,-2.9285 10.629921,10.629921 0 0 1 4.1879,12.164 z m -219.9573,396.610562 -2.3443,39.33283 46.2306,16.50493 c 94.8704,-69.16748 217.89,-124.15449 357.325,-151.68292 l 0.01,-0.002 0.016,-0.003 c 183.2311043,-36.18218 358.2778,-17.73162 489.0269,37.619 130.91428,55.42058 214.40948,143.64505 235.52848,250.60954 1.1576,5.89081 2.0911,11.83427 2.8323,17.83128 l 40.3641,33.73564 32.3768,-13.0355 c -0.5046,-19.00514 -2.3015,-33.1998 -6.0439,-52.23263 l -0.01,-0.0266 C 586.51471,465.39459 481.79381,359.75864 335.67323,297.90071 189.67883,236.09619 2.0470343,217.39969 -193.57337,255.81251 c 0,5.6e-4 -0.01,0.001 -0.013,0.002 l -0.024,0.004 c -0.3731,0.0733 -0.7431,0.12827 -1.1163,0.20196 l 0.1394,0.01 c -0.067,0.0141 -0.1343,0.0285 -0.2014,0.0431 l 0.06,-0.0534 c -150.1602,29.64587 -283.2062,88.65378 -387.4848,165.37301 z m 24.979,13.72228 a 10.629921,10.629921 0 0 1 11.6634,-6.71307 10.629921,10.629921 0 0 1 8.7606,12.21704 10.629921,10.629921 0 0 1 -12.2145,8.75934 10.629921,10.629921 0 0 1 -8.7613,-12.21519 10.629921,10.629921 0 0 1 0.5518,-2.04812 z M 571.39061,623.37231 a 10.629921,10.629921 0 0 1 12.4092,-7.0328 10.629921,10.629921 0 0 1 8.058,12.69064 10.629921,10.629921 0 0 1 -12.6906,8.058 10.629921,10.629921 0 0 1 -8.0599,-12.69128 10.629921,10.629921 0 0 1 0.2833,-1.02457 z m 211.4557,85.48478 17.1502,-35.45903 -284.6112,-496.79162 a 35.436614,35.436614 0 0 0 -30.7622,-17.81967 l -640.52128,0.29366 a 35.436614,35.436614 0 0 0 -30.7288,53.04776 l 8.0293,14.01528 42.5584,-26.51329 41.277904,30.28902 558.869576,-0.25628 274.3303,478.8463 44.4078,0.34787 z m -16.3727,-23.29025 a 10.629921,10.629921 0 0 1 -8.8981,1.10002 10.629921,10.629921 0 0 1 -6.8508,-13.3804 10.629921,10.629921 0 0 1 13.3804,-6.85077 10.629921,10.629921 0 0 1 6.8518,13.38209 10.629921,10.629921 0 0 1 -4.4833,5.74906 z M 500.38621,186.63547 a 10.629921,10.629921 0 0 1 -3.6849,1.34355 10.629921,10.629921 0 0 1 -12.2218,-8.75249 10.629921,10.629921 0 0 1 8.7498,-12.22253 10.629921,10.629921 0 0 1 12.2242,8.74885 10.629921,10.629921 0 0 1 -5.0673,10.88262 z m -569.311076,19.8474 a 10.629921,10.629921 0 0 1 -2.6972,0.98924 10.629921,10.629921 0 0 1 -12.66,-8.10301 10.629921,10.629921 0 0 1 8.102,-12.66172 10.629921,10.629921 0 0 1 12.6635,8.10102 10.629921,10.629921 0 0 1 -5.4083,11.67447 z M -582.50697,79.319018 c 0.2044,12.91599 7.4199,24.697772 18.8327,30.748802 10.3108,5.46597 20.679,10.8363 31.0934,16.13056 l 3.1916,-40.665142 33.7247,-20.27342 57.6521,-87.172503 1198.98778,1.0431 -22.2139,-32.5271 22.4103,-38.3399 -1218.18708,-1.0599 c -11.9037,-0.01 -23.0169,5.9582 -29.5841,15.8864 l -90.0306,136.126803 c -3.9386,5.9566 -5.9856,12.96391 -5.8729,20.10431 l 0,0 z m 18.9996,-6.16707 a 10.629921,10.629921 0 0 1 8.4525,-10.47313 10.629921,10.629921 0 0 1 12.5807,8.22383 10.629921,10.629921 0 0 1 -8.2238,12.58465 10.629921,10.629921 0 0 1 -12.5846,-8.22575 10.629921,10.629921 0 0 1 -0.2248,-2.1096 z m 81.8278,-127.532333 a 10.629921,10.629921 0 0 1 8.3686,-10.5376 10.629921,10.629921 0 0 1 12.6472,8.1242 10.629921,10.629921 0 0 1 -8.1243,12.6492 10.629921,10.629921 0 0 1 -12.6492,-8.1282 10.629921,10.629921 0 0 1 -0.2423,-2.1076 z m 1170.83978,-1.6884 a 10.629921,10.629921 0 0 1 3.474,-8.2645 10.629921,10.629921 0 0 1 15.015,0.72 10.629921,10.629921 0 0 1 -0.7182,15.015 10.629921,10.629921 0 0 1 -15.0189,-0.7201 10.629921,10.629921 0 0 1 -2.7519,-6.7504 z m 132.0287,1018.775385 -1417.32288,0 0,-1062.99209 1417.32288,0 z" />
  </g>
</svg>
